<svg width="166" height="31" viewBox="0 0 166 31" fill="none" xmlns="http://www.w3.org/2000/svg">
<path d="M15.3765 20.568C15.4192 20.6747 15.4405 20.8347 15.4405 21.048C15.4405 21.24 15.4405 21.4 15.4405 21.528C15.4405 21.6987 15.4085 21.8587 15.3445 22.008C15.2805 22.1573 15.1952 22.296 15.0885 22.424C14.8965 22.68 14.6192 22.872 14.2565 23C13.7445 23.1707 13.2645 23.256 12.8165 23.256C12.5818 23.2773 12.3365 23.288 12.0805 23.288C11.8245 23.288 11.5685 23.3093 11.3125 23.352H11.1845C9.54183 23.3733 7.84583 23.3733 6.0965 23.352C5.66983 23.3307 5.18983 23.3307 4.6565 23.352C4.12317 23.3947 3.6005 23.384 3.0885 23.32C2.5765 23.2773 2.10717 23.16 1.6805 22.968C1.27517 22.7547 0.987167 22.424 0.8165 21.976C0.773833 21.8693 0.741833 21.7733 0.7205 21.688C0.699167 21.5813 0.6885 21.4747 0.6885 21.368C0.603167 20.6427 0.571167 19.928 0.5925 19.224C0.613833 18.52 0.6245 17.8267 0.6245 17.144L0.6885 12.504V8.216C0.6885 7.448 0.6885 6.76533 0.6885 6.168C0.709833 5.57067 0.731167 4.90933 0.7525 4.184V4.024C0.773833 3.81067 0.7845 3.59733 0.7845 3.384C0.805833 3.17067 0.8165 2.95733 0.8165 2.744C0.859167 2.25333 0.9765 1.83733 1.1685 1.496C1.2965 1.176 1.5205 0.919999 1.8405 0.727999C2.11783 0.535999 2.4485 0.439999 2.8325 0.439999C2.98183 0.439999 3.1205 0.450665 3.2485 0.471998C3.39783 0.471998 3.5365 0.482665 3.6645 0.504C3.7925 0.525333 3.90983 0.567999 4.0165 0.631998C4.1445 0.695999 4.2725 0.781332 4.4005 0.887999C4.5285 1.03733 4.64583 1.21867 4.7525 1.432C4.83783 1.66667 4.89117 1.90133 4.9125 2.136C4.93383 2.28533 4.95517 2.424 4.9765 2.552C4.99783 2.68 5.0085 2.808 5.0085 2.936C4.96583 3.064 4.9445 3.192 4.9445 3.32C4.9445 3.448 4.9445 3.56533 4.9445 3.672V4.248L4.8165 19.32L11.1525 19.384H12.6565C12.7845 19.384 12.9232 19.3947 13.0725 19.416C13.2218 19.416 13.3712 19.4267 13.5205 19.448C13.6912 19.4693 13.8405 19.4907 13.9685 19.512C14.0965 19.5333 14.2245 19.5653 14.3525 19.608C14.5872 19.672 14.7792 19.7787 14.9285 19.928C15.1632 20.1413 15.3125 20.3547 15.3765 20.568ZM20.4393 8.536C21.1433 8.19467 21.8793 7.94933 22.6473 7.8C23.4153 7.65067 24.1726 7.61867 24.9193 7.704C25.6873 7.78933 26.4233 7.992 27.1273 8.312C27.8526 8.632 28.5139 9.08 29.1113 9.656C29.6019 10.1467 30.0286 10.744 30.3913 11.448C30.7539 12.1307 31.0206 12.8027 31.1912 13.464C31.5539 14.6373 31.6073 15.8213 31.3513 17.016C31.0953 18.2107 30.6579 19.32 30.0393 20.344C29.7406 20.8133 29.3673 21.24 28.9193 21.624C28.4926 21.9867 28.0339 22.2853 27.5433 22.52C26.9033 22.8187 26.2099 23.0213 25.4633 23.128C24.7166 23.256 23.9913 23.288 23.2873 23.224C22.0073 23.16 20.8766 22.84 19.8953 22.264C18.9353 21.688 18.1566 20.952 17.5593 20.056C16.9833 19.16 16.5993 18.1467 16.4073 17.016C16.2366 15.864 16.3113 14.6907 16.6313 13.496C16.9726 12.216 17.4633 11.1813 18.1033 10.392C18.7646 9.58133 19.5433 8.96267 20.4393 8.536ZM21.3993 12.824C21.0793 13.1227 20.8339 13.496 20.6633 13.944C20.4926 14.392 20.3859 14.8613 20.3433 15.352C20.3006 15.8213 20.3326 16.3013 20.4393 16.792C20.5673 17.2613 20.7593 17.688 21.0153 18.072C21.2286 18.392 21.6126 18.6587 22.1673 18.872C22.7219 19.0853 23.2979 19.2133 23.8953 19.256C24.5779 19.2987 25.1753 19.1173 25.6873 18.712C26.1993 18.2853 26.5833 17.7627 26.8393 17.144C27.1166 16.5253 27.2446 15.8533 27.2233 15.128C27.2019 14.4027 27.0099 13.7413 26.6473 13.144C26.3913 12.7173 26.0286 12.408 25.5593 12.216C25.1113 12.0027 24.6313 11.896 24.1193 11.896C23.6286 11.8747 23.1379 11.9493 22.6473 12.12C22.1566 12.2693 21.7406 12.504 21.3993 12.824ZM34.0933 11.672C34.0933 11.416 34.0933 11.128 34.0933 10.808C34.0933 10.4667 34.1039 10.1253 34.1253 9.784C34.1466 9.42133 34.1786 9.08 34.2213 8.76C34.2853 8.41867 34.3706 8.12 34.4773 7.864C34.6479 7.48 34.9146 7.224 35.2773 7.096C35.6399 6.94667 36.0346 6.88267 36.4613 6.904C36.9093 6.904 37.2613 6.97867 37.5173 7.128C37.7733 7.27733 37.9653 7.48 38.0933 7.736C38.2213 7.97067 38.2959 8.248 38.3173 8.568C38.3599 8.86667 38.3813 9.18667 38.3813 9.528C38.5733 9.18667 38.8293 8.90933 39.1493 8.696C39.4906 8.48267 39.8319 8.312 40.1733 8.184C40.5146 8.056 40.8239 7.97067 41.1013 7.928C41.3786 7.864 41.5386 7.832 41.5813 7.832C42.1146 7.78933 42.5946 7.77867 43.0213 7.8C43.4693 7.82133 43.9599 7.91733 44.4933 8.088C44.8346 8.216 45.1866 8.39733 45.5493 8.632C45.9119 8.84533 46.2319 9.10133 46.5093 9.4C46.7866 9.69867 46.9679 10.0293 47.0533 10.392C47.1599 10.7333 47.1173 11.096 46.9253 11.48C46.6266 12.0133 46.2959 12.28 45.9333 12.28C45.5706 12.2587 45.1759 12.1947 44.7493 12.088C44.5146 12.0453 44.2373 11.9493 43.9173 11.8C43.5973 11.6507 43.3199 11.5547 43.0853 11.512C42.3599 11.4053 41.7199 11.4587 41.1653 11.672C40.6106 11.8853 40.1306 12.1413 39.7253 12.44C39.2559 12.8027 38.8506 13.2187 38.5093 13.688V18.296C38.5093 18.872 38.4986 19.4693 38.4773 20.088C38.4773 20.7067 38.3919 21.272 38.2213 21.784C38.0719 22.2747 37.8053 22.68 37.4213 23C37.0586 23.2987 36.5253 23.4267 35.8213 23.384C35.4373 23.3627 35.0959 23.1813 34.7973 22.84C34.4986 22.4773 34.3173 22.1253 34.2533 21.784C34.2106 21.464 34.1786 21.08 34.1573 20.632C34.1359 20.184 34.1146 19.7147 34.0933 19.224C34.0933 18.7333 34.0933 18.2427 34.0933 17.752C34.0933 17.24 34.0933 16.7707 34.0933 16.344V11.672ZM58.852 18.616C59.108 18.552 59.364 18.5093 59.62 18.488C59.8973 18.4667 60.1427 18.4987 60.356 18.584C60.5907 18.6693 60.7827 18.8187 60.932 19.032C61.0813 19.224 61.156 19.5013 61.156 19.864C61.156 20.12 61.092 20.3653 60.964 20.6C60.836 20.8347 60.676 21.048 60.484 21.24C60.292 21.432 60.0787 21.6027 59.844 21.752C59.6093 21.88 59.3853 21.9867 59.172 22.072C58.5533 22.3493 57.8387 22.5627 57.028 22.712C56.2387 22.8613 55.4173 22.9147 54.564 22.872C53.412 22.8293 52.3027 22.6053 51.236 22.2C50.1907 21.7733 49.3693 21.08 48.772 20.12C48.2173 19.1813 47.8867 18.136 47.78 16.984C47.6733 15.832 47.7267 14.744 47.94 13.72C48.1747 12.4827 48.5693 11.48 49.124 10.712C49.7 9.92267 50.3827 9.29333 51.172 8.824C52.132 8.26933 53.2093 7.98133 54.404 7.96C55.5987 7.93867 56.74 8.17333 57.828 8.664C58.5533 8.984 59.204 9.42133 59.78 9.976C60.356 10.5093 60.7933 11.16 61.092 11.928C61.1773 12.12 61.2413 12.3547 61.284 12.632C61.348 12.9093 61.3907 13.208 61.412 13.528C61.4333 13.8267 61.4333 14.1253 61.412 14.424C61.3907 14.7227 61.3373 14.9893 61.252 15.224C61.124 15.608 60.964 15.9067 60.772 16.12C60.58 16.3333 60.3347 16.4933 60.036 16.6C59.7373 16.7067 59.3747 16.7813 58.948 16.824C58.5427 16.8453 58.052 16.8667 57.476 16.888C56.964 16.9093 56.484 16.92 56.036 16.92C55.588 16.92 55.1293 16.92 54.66 16.92C54.1907 16.8987 53.7 16.888 53.188 16.888C52.6973 16.8667 52.1427 16.8453 51.524 16.824C51.46 17.2507 51.5133 17.624 51.684 17.944C51.876 18.2427 52.132 18.4987 52.452 18.712C52.772 18.904 53.1347 19.0533 53.54 19.16C53.9453 19.2667 54.34 19.3307 54.724 19.352C55.4493 19.3947 56.1427 19.3413 56.804 19.192C57.4653 19.0213 58.148 18.8293 58.852 18.616ZM57.476 12.408C57.0707 11.9387 56.644 11.5973 56.196 11.384C55.8547 11.2347 55.492 11.1707 55.108 11.192C54.7453 11.192 54.3933 11.2453 54.052 11.352C53.4333 11.5013 52.9107 11.8213 52.484 12.312C52.4413 12.3547 52.3667 12.4613 52.26 12.632C52.1533 12.7813 52.0467 12.9413 51.94 13.112C51.8547 13.2827 51.7907 13.4427 51.748 13.592C51.7053 13.7413 51.7267 13.816 51.812 13.816H58.084C58.0627 13.5173 58.0093 13.272 57.924 13.08C57.8387 12.8667 57.6893 12.6427 57.476 12.408ZM81.3428 15.544C81.3854 16.2267 81.4068 16.8773 81.4068 17.496C81.4068 18.0933 81.3854 18.7333 81.3428 19.416C81.3428 19.672 81.3428 19.96 81.3428 20.28C81.3428 20.6 81.3214 20.9093 81.2788 21.208C81.2361 21.5067 81.1614 21.784 81.0548 22.04C80.9481 22.296 80.7881 22.4987 80.5748 22.648C80.3188 22.8187 80.0308 22.936 79.7108 23C79.3908 23.0427 79.0921 23.0213 78.8148 22.936C78.5374 22.8507 78.2921 22.6907 78.0788 22.456C77.8868 22.2213 77.7801 21.8907 77.7588 21.464C77.6948 20.4827 77.6628 19.5013 77.6628 18.52C77.6628 18.0293 77.6521 17.56 77.6308 17.112C77.6308 16.664 77.6414 16.0347 77.6628 15.224C77.6628 14.8187 77.6308 14.36 77.5668 13.848C77.5028 13.3147 77.3428 12.9413 77.0868 12.728C76.8948 12.5573 76.6814 12.4613 76.4468 12.44C76.2121 12.3973 75.9774 12.4187 75.7428 12.504C75.5294 12.5893 75.3374 12.7493 75.1668 12.984C74.9961 13.1973 74.8788 13.4747 74.8148 13.816C74.8148 14.0933 74.8041 14.3813 74.7828 14.68C74.7828 14.9573 74.7934 15.224 74.8148 15.48C74.8361 16.1627 74.8468 16.8133 74.8468 17.432C74.8468 18.0293 74.8361 18.6693 74.8148 19.352C74.7934 19.6293 74.7828 19.928 74.7828 20.248C74.8041 20.568 74.8041 20.888 74.7828 21.208C74.7614 21.5067 74.6974 21.784 74.5908 22.04C74.5054 22.296 74.3454 22.4987 74.1108 22.648C73.8548 22.8187 73.5774 22.9253 73.2788 22.968C73.0014 22.9893 72.7348 22.9467 72.4788 22.84C72.2441 22.712 72.0308 22.52 71.8388 22.264C71.6681 22.008 71.5721 21.6667 71.5508 21.24C71.5081 20.7493 71.4761 20.3013 71.4548 19.896C71.4548 19.4693 71.4548 19.0213 71.4548 18.552C71.4548 18.0613 71.4654 17.56 71.4868 17.048C71.5081 16.5147 71.4974 16.0027 71.4548 15.512C71.4548 15.3627 71.4441 15.192 71.4228 15C71.4228 14.7867 71.4121 14.5733 71.3908 14.36C71.3908 14.1467 71.3694 13.944 71.3268 13.752C71.3054 13.5387 71.2628 13.368 71.1988 13.24C71.0281 12.9413 70.7188 12.7493 70.2708 12.664C69.8441 12.5787 69.4814 12.6107 69.1828 12.76C68.8841 12.9093 68.6601 13.1013 68.5108 13.336C68.3614 13.5707 68.2548 13.8267 68.1908 14.104C68.1268 14.3813 68.0948 14.68 68.0948 15C68.0948 15.2987 68.0948 15.5867 68.0948 15.864C68.0948 17.2507 68.0948 18.456 68.0948 19.48C68.1161 20.4827 68.0094 21.2933 67.7748 21.912C67.6681 22.232 67.4441 22.4773 67.1028 22.648C66.7828 22.8187 66.4308 22.904 66.0468 22.904C65.6841 22.904 65.3428 22.8187 65.0228 22.648C64.7028 22.4773 64.4894 22.2107 64.3828 21.848C64.3188 21.6133 64.2548 21.2827 64.1908 20.856C64.1481 20.408 64.1161 19.9173 64.0948 19.384C64.0734 18.8507 64.0628 18.3173 64.0628 17.784C64.0628 17.2293 64.0628 16.728 64.0628 16.28V11.672C64.0414 11.1813 64.0308 10.648 64.0308 10.072C64.0308 9.496 64.1161 8.97333 64.2868 8.504C64.4361 8.09867 64.6708 7.84267 64.9908 7.736C65.3108 7.608 65.6414 7.55467 65.9828 7.576C66.3668 7.576 66.6654 7.68267 66.8788 7.896C67.1134 8.088 67.2841 8.33333 67.3908 8.632C67.4974 8.90933 67.5614 9.22933 67.5828 9.592C67.6041 9.93333 67.6254 10.264 67.6468 10.584C67.8814 10.0507 68.1588 9.61333 68.4788 9.272C68.8201 8.90933 69.3001 8.67467 69.9188 8.568C71.4974 8.26933 72.7561 8.67467 73.6948 9.784C74.1214 9.35733 74.6654 9.00533 75.3268 8.728C75.8388 8.536 76.3614 8.45067 76.8948 8.472C77.4281 8.472 77.9294 8.568 78.3988 8.76C78.8894 8.952 79.3268 9.22933 79.7108 9.592C80.1161 9.95467 80.4361 10.392 80.6708 10.904C80.9908 11.5867 81.1721 12.344 81.2148 13.176C81.2574 14.008 81.3001 14.7973 81.3428 15.544ZM93.272 19.608L93.304 17.08L93.336 12.376C93.3573 11.6933 93.368 10.9893 93.368 10.264C93.368 9.53867 93.368 8.792 93.368 8.024C93.368 7.256 93.368 6.57333 93.368 5.976C93.368 5.37867 93.3893 4.70667 93.432 3.96V3.832C93.4533 3.61867 93.464 3.40533 93.464 3.192C93.4853 2.95733 93.496 2.72267 93.496 2.488C93.5173 2.104 93.6347 1.688 93.848 1.24C93.9973 0.941333 94.2213 0.685333 94.52 0.471998C94.8613 0.301332 95.192 0.216 95.512 0.216C95.6827 0.216 95.832 0.226666 95.96 0.247999C96.1093 0.247999 96.248 0.258666 96.376 0.279999C96.6533 0.322666 96.8987 0.450666 97.112 0.664C97.24 0.770666 97.3573 0.941332 97.464 1.176C97.5067 1.304 97.5387 1.432 97.56 1.56C97.6027 1.66667 97.6347 1.784 97.656 1.912C97.6773 2.06133 97.688 2.2 97.688 2.328C97.7093 2.456 97.72 2.584 97.72 2.712C97.72 2.86133 97.7093 3 97.688 3.128C97.688 3.23466 97.688 3.352 97.688 3.48V4.024L97.496 20.632V20.952C97.496 21.016 97.4853 21.1013 97.464 21.208C97.464 21.2933 97.4533 21.4 97.432 21.528C97.3893 21.6347 97.3467 21.752 97.304 21.88C97.2827 21.9867 97.2507 22.104 97.208 22.232C97.144 22.3387 97.0693 22.4453 96.984 22.552C96.92 22.6373 96.8347 22.7227 96.728 22.808C96.5573 22.9787 96.28 23.096 95.896 23.16C95.32 23.288 94.776 23.2347 94.264 23C94.008 22.8293 93.8267 22.616 93.72 22.36C93.656 22.296 93.624 22.232 93.624 22.168C93.6027 22.1253 93.5813 22.0933 93.56 22.072C93.5387 22.0507 93.5173 22.0187 93.496 21.976C93.4533 21.8693 93.4213 21.7627 93.4 21.656C93.3787 21.528 93.368 21.4 93.368 21.272C93.3467 21.1653 93.3253 21.0587 93.304 20.952C93.304 20.8453 93.2933 20.7387 93.272 20.632C93.2507 20.4613 93.2507 20.28 93.272 20.088V19.608ZM110.209 8.6C110.827 8.856 111.393 9.22933 111.905 9.72C112.417 10.1893 112.854 10.7333 113.217 11.352C113.601 11.9707 113.889 12.6427 114.081 13.368C114.294 14.072 114.401 14.7867 114.401 15.512C114.422 16.6 114.166 17.624 113.633 18.584C113.121 19.544 112.278 20.28 111.105 20.792C110.209 21.1547 109.281 21.432 108.321 21.624C107.382 21.7947 106.401 21.912 105.377 21.976V27.832C105.377 27.96 105.355 28.0773 105.313 28.184C105.291 28.2907 105.281 28.3973 105.281 28.504C105.238 28.7173 105.185 28.9093 105.121 29.08C105.078 29.2507 105.014 29.432 104.929 29.624C104.843 29.752 104.758 29.8693 104.673 29.976C104.587 30.0827 104.491 30.1893 104.385 30.296C103.873 30.552 103.339 30.6053 102.785 30.456C102.443 30.4347 102.166 30.328 101.953 30.136C101.761 29.944 101.622 29.7413 101.537 29.528C101.451 29.3147 101.377 29.0693 101.313 28.792C101.291 28.6853 101.27 28.5787 101.249 28.472C101.249 28.3867 101.249 28.2907 101.249 28.184V10.36C101.249 10.232 101.249 10.104 101.249 9.976C101.27 9.82667 101.291 9.67733 101.313 9.528C101.334 9.272 101.398 9.016 101.505 8.76C101.697 8.22667 102.091 7.864 102.689 7.672C103.286 7.48 103.958 7.39467 104.705 7.416C105.217 7.43733 105.739 7.49067 106.273 7.576C106.827 7.66133 107.35 7.768 107.841 7.896C108.353 8.00267 108.811 8.12 109.217 8.248C109.622 8.376 109.953 8.49333 110.209 8.6ZM110.273 15.512C110.358 14.9147 110.283 14.4133 110.049 14.008C109.835 13.5813 109.526 13.24 109.121 12.984C108.715 12.7067 108.246 12.4933 107.713 12.344C107.201 12.1947 106.689 12.088 106.177 12.024C106.113 12.0027 106.006 11.992 105.857 11.992C105.729 11.992 105.579 11.992 105.409 11.992C105.409 12.6747 105.409 13.336 105.409 13.976C105.43 14.5947 105.43 15.2667 105.409 15.992V18.136C105.899 18.1147 106.411 18.0613 106.945 17.976C107.499 17.8907 108.011 17.752 108.481 17.56C108.95 17.368 109.345 17.112 109.665 16.792C110.006 16.472 110.209 16.0453 110.273 15.512ZM124.647 17.368C124.241 17.112 123.783 16.9093 123.271 16.76C122.78 16.6107 122.268 16.472 121.735 16.344C121.223 16.216 120.721 16.0773 120.231 15.928C119.74 15.7573 119.292 15.5227 118.887 15.224C118.012 14.5627 117.5 13.752 117.351 12.792C117.223 11.8107 117.436 10.8293 117.991 9.848C118.289 9.336 118.684 8.92 119.175 8.6C119.665 8.25867 120.199 8.00267 120.775 7.832C121.372 7.64 121.98 7.53333 122.599 7.512C123.217 7.49067 123.804 7.52267 124.359 7.608C124.721 7.672 125.105 7.768 125.511 7.896C125.916 8.00267 126.289 8.152 126.631 8.344C126.993 8.536 127.313 8.78133 127.591 9.08C127.889 9.35733 128.103 9.70933 128.231 10.136C128.316 10.4133 128.327 10.68 128.263 10.936C128.22 11.192 128.113 11.4053 127.943 11.576C127.793 11.7467 127.591 11.8747 127.335 11.96C127.1 12.0453 126.844 12.0667 126.567 12.024C126.247 11.96 125.948 11.864 125.671 11.736C125.393 11.608 125.116 11.4693 124.839 11.32C124.561 11.1707 124.273 11.0427 123.975 10.936C123.697 10.8293 123.399 10.776 123.079 10.776C122.588 10.7547 122.183 10.84 121.863 11.032C121.543 11.224 121.319 11.4587 121.191 11.736C121.084 12.0133 121.095 12.312 121.223 12.632C121.372 12.952 121.671 13.2293 122.119 13.464C122.524 13.6773 122.972 13.848 123.463 13.976C123.953 14.104 124.433 14.232 124.903 14.36C125.393 14.488 125.863 14.6373 126.311 14.808C126.78 14.9787 127.196 15.2133 127.559 15.512C128.263 16.088 128.689 16.76 128.839 17.528C129.009 18.296 128.967 19.0533 128.711 19.8C128.455 20.5467 128.007 21.208 127.367 21.784C126.748 22.36 126.012 22.744 125.159 22.936C124.54 23.064 123.868 23.128 123.143 23.128C122.439 23.128 121.735 23.0533 121.031 22.904C120.348 22.7547 119.687 22.52 119.047 22.2C118.428 21.88 117.905 21.4747 117.479 20.984C117.18 20.6427 117.02 20.2587 116.999 19.832C116.999 19.384 117.084 19 117.255 18.68C117.447 18.3387 117.713 18.104 118.055 17.976C118.396 17.848 118.78 17.9227 119.207 18.2C119.548 18.4347 119.953 18.6693 120.423 18.904C120.892 19.1173 121.361 19.288 121.831 19.416C122.3 19.544 122.748 19.608 123.175 19.608C123.623 19.608 124.007 19.512 124.327 19.32C124.796 19.0213 125.041 18.68 125.063 18.296C125.084 17.8907 124.945 17.5813 124.647 17.368ZM144.682 15.384C144.639 16.088 144.597 16.8027 144.554 17.528C144.511 18.232 144.394 18.9147 144.202 19.576C144.031 20.2373 143.754 20.8347 143.37 21.368C143.007 21.9013 142.485 22.328 141.802 22.648C141.205 22.9467 140.565 23.1493 139.882 23.256C139.199 23.384 138.517 23.4373 137.834 23.416C137.151 23.3947 136.49 23.288 135.85 23.096C135.21 22.9253 134.634 22.68 134.122 22.36C133.61 22.04 133.194 21.624 132.874 21.112C132.554 20.6 132.298 20.0453 132.106 19.448C131.935 18.8507 131.818 18.232 131.754 17.592C131.69 16.952 131.647 16.3547 131.626 15.8C131.541 14.328 131.541 12.8773 131.626 11.448C131.626 11.1707 131.626 10.8613 131.626 10.52C131.626 10.1573 131.647 9.80533 131.69 9.464C131.754 9.12267 131.85 8.81333 131.978 8.536C132.106 8.23733 132.319 8.01333 132.618 7.864C133.258 7.52267 133.845 7.50133 134.378 7.8C134.933 8.09867 135.263 8.71733 135.37 9.656C135.434 10.1467 135.455 10.6907 135.434 11.288C135.434 11.8853 135.455 12.4293 135.498 12.92C135.519 13.6453 135.541 14.4347 135.562 15.288C135.583 16.12 135.701 16.8667 135.914 17.528C136.149 18.1893 136.522 18.6907 137.034 19.032C137.567 19.352 138.357 19.3627 139.402 19.064C139.893 18.9147 140.213 18.5413 140.362 17.944C140.533 17.3467 140.618 16.4613 140.618 15.288C140.618 14.776 140.607 14.2107 140.586 13.592C140.565 12.9733 140.554 12.3653 140.554 11.768C140.554 11.1493 140.565 10.584 140.586 10.072C140.629 9.53867 140.693 9.13333 140.778 8.856C140.885 8.472 141.109 8.184 141.45 7.992C141.791 7.8 142.154 7.704 142.538 7.704C142.922 7.68267 143.285 7.75733 143.626 7.928C143.967 8.09867 144.202 8.376 144.33 8.76C144.458 9.10133 144.543 9.53867 144.586 10.072C144.65 10.584 144.693 11.1493 144.714 11.768C144.735 12.3653 144.735 12.984 144.714 13.624C144.714 14.2427 144.703 14.8293 144.682 15.384ZM165.343 15.544C165.385 16.2267 165.407 16.8773 165.407 17.496C165.407 18.0933 165.385 18.7333 165.343 19.416C165.343 19.672 165.343 19.96 165.343 20.28C165.343 20.6 165.321 20.9093 165.279 21.208C165.236 21.5067 165.161 21.784 165.055 22.04C164.948 22.296 164.788 22.4987 164.575 22.648C164.319 22.8187 164.031 22.936 163.711 23C163.391 23.0427 163.092 23.0213 162.815 22.936C162.537 22.8507 162.292 22.6907 162.079 22.456C161.887 22.2213 161.78 21.8907 161.759 21.464C161.695 20.4827 161.663 19.5013 161.663 18.52C161.663 18.0293 161.652 17.56 161.631 17.112C161.631 16.664 161.641 16.0347 161.663 15.224C161.663 14.8187 161.631 14.36 161.567 13.848C161.503 13.3147 161.343 12.9413 161.087 12.728C160.895 12.5573 160.681 12.4613 160.447 12.44C160.212 12.3973 159.977 12.4187 159.743 12.504C159.529 12.5893 159.337 12.7493 159.167 12.984C158.996 13.1973 158.879 13.4747 158.815 13.816C158.815 14.0933 158.804 14.3813 158.783 14.68C158.783 14.9573 158.793 15.224 158.815 15.48C158.836 16.1627 158.847 16.8133 158.847 17.432C158.847 18.0293 158.836 18.6693 158.815 19.352C158.793 19.6293 158.783 19.928 158.783 20.248C158.804 20.568 158.804 20.888 158.783 21.208C158.761 21.5067 158.697 21.784 158.591 22.04C158.505 22.296 158.345 22.4987 158.111 22.648C157.855 22.8187 157.577 22.9253 157.279 22.968C157.001 22.9893 156.735 22.9467 156.479 22.84C156.244 22.712 156.031 22.52 155.839 22.264C155.668 22.008 155.572 21.6667 155.551 21.24C155.508 20.7493 155.476 20.3013 155.455 19.896C155.455 19.4693 155.455 19.0213 155.455 18.552C155.455 18.0613 155.465 17.56 155.487 17.048C155.508 16.5147 155.497 16.0027 155.455 15.512C155.455 15.3627 155.444 15.192 155.423 15C155.423 14.7867 155.412 14.5733 155.391 14.36C155.391 14.1467 155.369 13.944 155.327 13.752C155.305 13.5387 155.263 13.368 155.199 13.24C155.028 12.9413 154.719 12.7493 154.271 12.664C153.844 12.5787 153.481 12.6107 153.183 12.76C152.884 12.9093 152.66 13.1013 152.511 13.336C152.361 13.5707 152.255 13.8267 152.191 14.104C152.127 14.3813 152.095 14.68 152.095 15C152.095 15.2987 152.095 15.5867 152.095 15.864C152.095 17.2507 152.095 18.456 152.095 19.48C152.116 20.4827 152.009 21.2933 151.775 21.912C151.668 22.232 151.444 22.4773 151.103 22.648C150.783 22.8187 150.431 22.904 150.047 22.904C149.684 22.904 149.343 22.8187 149.023 22.648C148.703 22.4773 148.489 22.2107 148.383 21.848C148.319 21.6133 148.255 21.2827 148.191 20.856C148.148 20.408 148.116 19.9173 148.095 19.384C148.073 18.8507 148.063 18.3173 148.063 17.784C148.063 17.2293 148.063 16.728 148.063 16.28V11.672C148.041 11.1813 148.031 10.648 148.031 10.072C148.031 9.496 148.116 8.97333 148.287 8.504C148.436 8.09867 148.671 7.84267 148.991 7.736C149.311 7.608 149.641 7.55467 149.983 7.576C150.367 7.576 150.665 7.68267 150.879 7.896C151.113 8.088 151.284 8.33333 151.391 8.632C151.497 8.90933 151.561 9.22933 151.583 9.592C151.604 9.93333 151.625 10.264 151.647 10.584C151.881 10.0507 152.159 9.61333 152.479 9.272C152.82 8.90933 153.3 8.67467 153.919 8.568C155.497 8.26933 156.756 8.67467 157.695 9.784C158.121 9.35733 158.665 9.00533 159.327 8.728C159.839 8.536 160.361 8.45067 160.895 8.472C161.428 8.472 161.929 8.568 162.399 8.76C162.889 8.952 163.327 9.22933 163.711 9.592C164.116 9.95467 164.436 10.392 164.671 10.904C164.991 11.5867 165.172 12.344 165.215 13.176C165.257 14.008 165.3 14.7973 165.343 15.544Z" fill="black"/>
</svg>
