<svg width="96" height="23" viewBox="0 0 96 23" fill="none" xmlns="http://www.w3.org/2000/svg">
<path d="M13.7756 23H10.5436L9.96763 21.848C9.49829 22.2747 9.05029 22.5733 8.62363 22.744C8.21829 22.9147 7.59963 23 6.76763 23H3.98363C3.04496 22.104 2.29829 20.9307 1.74363 19.48C1.21029 18.0293 0.943625 16.408 0.943625 14.616C0.943625 12.8027 1.21029 11.2667 1.74363 10.008C2.29829 8.74933 3.07696 7.62933 4.07963 6.648H6.83163C7.96229 6.648 8.85829 6.94667 9.51963 7.544V0.599998H13.7756V23ZM9.51963 10.008H6.44763C5.65829 11.352 5.26363 13.0053 5.26363 14.968C5.26363 16.9093 5.64763 18.4667 6.41563 19.64H9.51963V10.008ZM26.2446 23H19.2686C17.1353 21.016 16.0686 18.3067 16.0686 14.872C16.0686 13.144 16.3033 11.64 16.7726 10.36C17.2633 9.08 18.0313 7.84267 19.0766 6.648H26.5646C27.674 7.928 28.4313 9.176 28.8366 10.392C29.242 11.5867 29.4446 13.08 29.4446 14.872C29.4446 18.3067 28.378 21.016 26.2446 23ZM21.5406 19.64H23.9726C24.7406 18.1467 25.1246 16.4507 25.1246 14.552C25.1246 12.6533 24.73 11.1387 23.9406 10.008H21.5406C20.7726 11.096 20.3886 12.6427 20.3886 14.648C20.3886 16.632 20.7726 18.296 21.5406 19.64ZM35.9594 0.599998V23H31.7354V0.599998H35.9594ZM48.4321 23H41.4561C39.3228 21.016 38.2561 18.3067 38.2561 14.872C38.2561 13.144 38.4908 11.64 38.9601 10.36C39.4508 9.08 40.2188 7.84267 41.2641 6.648H48.7521C49.8615 7.928 50.6188 9.176 51.0241 10.392C51.4295 11.5867 51.6321 13.08 51.6321 14.872C51.6321 18.3067 50.5655 21.016 48.4321 23ZM43.7281 19.64H46.1601C46.9281 18.1467 47.3121 16.4507 47.3121 14.552C47.3121 12.6533 46.9175 11.1387 46.1281 10.008H43.7281C42.9601 11.096 42.5761 12.6427 42.5761 14.648C42.5761 16.632 42.9601 18.296 43.7281 19.64ZM53.9549 23V6.648H56.9949L57.7949 8.376C58.6482 7.224 59.7255 6.648 61.0269 6.648H62.2749V10.936H58.2109V23H53.9549ZM70.8354 6.648H77.9074V10.008H72.9154L75.9554 14.52C77.3207 16.4613 78.078 17.7947 78.2274 18.52C78.3127 18.8613 78.3554 19.2133 78.3554 19.576C78.3554 21.0907 77.79 22.232 76.6594 23H68.4994V19.64H74.3554L70.9314 14.616C70.782 14.3813 70.5474 14.0507 70.2274 13.624C69.9287 13.1973 69.694 12.856 69.5234 12.6C69.3527 12.3227 69.2354 12.12 69.1714 11.992C69.1074 11.864 69.022 11.704 68.9154 11.512C68.8087 11.2987 68.734 11.1173 68.6914 10.968C68.606 10.5627 68.5634 10.232 68.5634 9.976C68.5634 8.41867 69.3207 7.30933 70.8354 6.648ZM80.4229 23V6.648H84.6469V23H80.4229ZM80.4229 0.599998H84.6469V4.92H80.4229V0.599998ZM88.3516 15.864V10.008H86.1436V6.648H88.3516V2.2H92.6076V6.648H95.2316V10.008H92.6076V16.888C92.6076 18.1893 92.8316 19.1067 93.2796 19.64H95.2316V23H90.6876C89.557 21.9547 88.8743 20.824 88.6396 19.608C88.4476 18.584 88.3516 17.336 88.3516 15.864Z" fill="black"/>
</svg>
