<svg width="158" height="22" viewBox="0 0 158 22" fill="none" xmlns="http://www.w3.org/2000/svg">
<path d="M4.61845 21.156C3.33579 21.156 2.36512 20.9307 1.70645 20.48C1.04779 20.0293 0.59712 19.492 0.354453 18.868C0.111786 18.244 0.0424531 17.5333 0.146453 16.736L0.250453 16.58C0.319787 16.476 0.371787 16.3373 0.406453 16.164C0.44112 15.9907 0.475787 15.8867 0.510453 15.852L0.926453 15.956C0.995786 15.9907 1.04779 15.9387 1.08245 15.8C1.11712 15.6613 1.09979 15.6093 1.03045 15.644C0.822453 15.6787 0.718453 15.7133 0.718453 15.748C0.718453 15.7827 0.683786 15.7133 0.614453 15.54L0.770453 15.436L0.718453 15.384C0.718453 15.3147 0.75312 15.28 0.822453 15.28L0.718453 15.124C0.718453 15.124 0.85712 15.1413 1.13445 15.176C1.44645 15.176 1.56779 15.1413 1.49845 15.072C1.53312 15.072 1.51579 15.0547 1.44645 15.02C1.37712 14.9507 1.34245 14.8987 1.34245 14.864C1.30779 14.8987 1.29045 14.8987 1.29045 14.864C1.29045 14.7947 1.16912 14.7947 0.926453 14.864C0.822453 14.8987 0.770453 14.8813 0.770453 14.812C0.770453 14.7427 0.770453 14.708 0.770453 14.708C0.874453 14.6733 0.978453 14.6387 1.08245 14.604C1.18645 14.5347 1.25579 14.4307 1.29045 14.292C1.32512 13.9453 1.35979 13.7547 1.39445 13.72C1.42912 13.6853 1.46379 13.6333 1.49845 13.564C1.53312 13.4947 1.58512 13.408 1.65445 13.304C1.72379 13.1653 1.77579 13.096 1.81045 13.096C1.77579 13.0613 1.75845 13.0093 1.75845 12.94C1.75845 12.7667 1.87979 12.6973 2.12245 12.732C2.39979 12.7667 2.48645 12.6627 2.38245 12.42C2.27845 12.2813 2.33045 12.212 2.53845 12.212L2.48645 12.16C2.62512 12.0907 2.71179 12.056 2.74645 12.056C2.81579 12.0213 2.78112 11.952 2.64245 11.848L2.85045 11.38C2.88512 11.3107 2.95445 11.2067 3.05845 11.068C3.19712 10.8947 3.40512 10.7213 3.68245 10.548C3.68245 10.548 3.66512 10.5653 3.63045 10.6C3.63045 10.6 3.63045 10.6173 3.63045 10.652H3.68245C3.78645 10.652 3.97712 10.548 4.25445 10.34C4.21979 10.3053 4.15045 10.288 4.04645 10.288C3.97712 10.2533 3.92512 10.2187 3.89045 10.184C3.85579 10.08 4.02912 9.85467 4.41045 9.508C4.79179 9.16133 5.20779 8.832 5.65845 8.52C6.10912 8.17333 6.38645 7.96533 6.49045 7.896C7.01045 7.61867 7.58245 7.39333 8.20645 7.22C8.86512 7.012 9.43712 6.96 9.92245 7.064C10.0265 7.09867 10.1825 7.23733 10.3905 7.48C10.6331 7.72267 10.8065 7.792 10.9105 7.688C11.2225 7.41067 11.5865 7.13333 12.0025 6.856C12.4185 6.57867 12.6611 6.45733 12.7305 6.492C12.9038 6.52667 13.0771 6.596 13.2505 6.7C13.4238 6.76933 13.5105 6.97733 13.5105 7.324C13.5105 7.56667 13.4931 7.77467 13.4585 7.948C13.4238 8.156 13.3371 8.32933 13.1985 8.468C13.0598 8.60667 12.9211 8.76267 12.7825 8.936C12.6438 9.144 12.3838 9.47333 12.0025 9.924C11.6558 10.34 11.3958 10.6 11.2225 10.704C11.1185 10.7387 10.9971 10.8427 10.8585 11.016C10.7545 11.1547 10.6158 11.2933 10.4425 11.432C10.3038 11.536 10.1305 11.6227 9.92245 11.692C9.74912 11.7267 9.62779 11.7613 9.55845 11.796C9.48912 11.8307 9.36779 11.848 9.19445 11.848C9.05579 11.8133 9.02112 11.744 9.09045 11.64C9.12512 11.6053 9.12512 11.5707 9.09045 11.536C9.09045 11.4667 9.09045 11.4147 9.09045 11.38C9.12512 11.3107 9.17712 11.2587 9.24645 11.224C9.31579 11.1893 9.36779 11.1373 9.40245 11.068C9.43712 11.0333 9.52379 10.912 9.66245 10.704C9.83579 10.496 9.92245 10.3747 9.92245 10.34C9.88779 10.3053 9.88779 10.2707 9.92245 10.236C9.95712 10.1667 9.97445 10.1147 9.97445 10.08C10.0091 10.0453 10.0265 9.99333 10.0265 9.924C10.0265 9.85467 10.0611 9.82 10.1305 9.82C10.2691 9.78533 10.3385 9.73333 10.3385 9.664C10.3385 9.38667 10.3558 9.12667 10.3905 8.884C10.4598 8.64133 10.4425 8.43333 10.3385 8.26C10.1998 7.98267 9.93979 7.844 9.55845 7.844C9.03845 7.844 8.43179 8.06933 7.73845 8.52C7.04512 8.936 6.57712 9.28267 6.33445 9.56C5.22512 10.808 4.32379 12.212 3.63045 13.772C2.93712 15.332 2.65979 16.7187 2.79845 17.932C2.86779 18.5213 3.11045 19.0067 3.52645 19.388C3.94245 19.7693 4.41045 19.96 4.93045 19.96H5.81445C5.91845 19.96 6.02245 19.96 6.12645 19.96C6.26512 19.9253 6.40379 19.8907 6.54245 19.856C6.75045 19.7867 6.90645 19.752 7.01045 19.752C7.18379 19.5787 7.28779 19.5787 7.32245 19.752C7.59979 19.6133 7.72112 19.5613 7.68645 19.596C7.65179 19.6307 7.70379 19.6307 7.84245 19.596C8.53579 19.4227 9.21179 19.128 9.87045 18.712C10.5291 18.296 11.1358 17.88 11.6905 17.464C11.7945 17.3947 11.9678 17.2907 12.2105 17.152C12.4531 17.0133 12.6265 16.9093 12.7305 16.84C12.7998 16.736 12.8518 16.6493 12.8865 16.58C12.9558 16.476 13.0425 16.4067 13.1465 16.372C13.2158 16.268 13.3025 16.164 13.4065 16.06C13.5105 15.9213 13.5798 15.8347 13.6145 15.8C13.7878 15.7307 13.8398 15.6787 13.7705 15.644C13.7011 15.5747 13.7878 15.488 14.0305 15.384C14.0998 15.3493 14.1691 15.332 14.2385 15.332C14.3078 15.332 14.3425 15.3667 14.3425 15.436C14.3425 15.5053 14.2385 15.696 14.0305 16.008C13.8918 16.2507 13.6318 16.5627 13.2505 16.944L12.7305 17.464L12.1065 17.776C12.0371 17.8453 12.0025 17.9147 12.0025 17.984C12.0025 18.0187 11.9678 18.0707 11.8985 18.14C10.9278 19.0067 9.81845 19.7347 8.57045 20.324C7.35712 20.8787 6.03979 21.156 4.61845 21.156ZM17.9772 21.468C17.2145 21.468 16.5385 21.26 15.9492 20.844C15.3945 20.3933 15.1172 19.6307 15.1172 18.556C15.1172 18.1747 15.1865 17.6373 15.3252 16.944C15.4638 16.2507 15.6892 15.5227 16.0012 14.76C16.1745 14.344 16.3652 13.9453 16.5732 13.564C16.8158 13.1827 17.0412 12.8187 17.2492 12.472C17.2838 12.4373 17.3878 12.472 17.5612 12.576C17.7692 12.68 17.8905 12.7147 17.9252 12.68C17.9598 12.6107 17.9078 12.5413 17.7692 12.472C17.6652 12.368 17.6305 12.2987 17.6652 12.264C17.7345 12.1947 17.7865 12.16 17.8212 12.16C17.8905 12.1253 17.9425 12.0733 17.9772 12.004C18.0118 11.9347 18.0292 11.8653 18.0292 11.796C18.0292 11.692 17.9772 11.6053 17.8732 11.536C17.8038 11.4667 17.8385 11.3627 17.9772 11.224C18.1505 10.9813 18.3412 10.756 18.5492 10.548C18.7918 10.3053 18.9998 10.0973 19.1732 9.924C19.2425 9.85467 19.3292 9.75067 19.4332 9.612C19.5372 9.43867 19.6065 9.33467 19.6412 9.3L19.7452 9.196C19.7798 9.16133 19.8145 9.12667 19.8492 9.092C19.8492 9.05733 19.8492 9.04 19.8492 9.04C19.8838 9.04 19.9012 9.02267 19.9012 8.988C19.9012 8.884 19.7972 8.78 19.5892 8.676C19.3812 8.572 19.2772 8.50267 19.2772 8.468C19.2772 8.43333 19.2598 8.39867 19.2252 8.364C19.1905 8.32933 19.1558 8.27733 19.1212 8.208C19.1558 8.208 19.1905 8.17333 19.2252 8.104C19.2945 8 19.3465 7.948 19.3812 7.948C19.4158 7.948 19.4852 7.98267 19.5892 8.052C19.6932 8.08667 19.7625 8.104 19.7972 8.104C19.8318 8.104 19.8492 8.08667 19.8492 8.052C19.8838 8.01733 19.9185 8 19.9532 8C20.0225 8 20.1785 8.052 20.4212 8.156C20.6638 8.22533 20.8025 8.26 20.8372 8.26C20.8718 8.26 20.9758 8.17333 21.1492 8C21.3225 7.82667 21.4265 7.72267 21.4612 7.688C21.5305 7.61867 21.5825 7.54933 21.6172 7.48C21.6518 7.376 21.7385 7.25467 21.8772 7.116H21.9292C21.9638 7.08133 21.9812 7.04667 21.9812 7.012C21.9812 6.97733 21.9812 6.96 21.9812 6.96C22.0505 6.89067 22.1025 6.83867 22.1372 6.804C22.2065 6.73467 22.2585 6.68267 22.2932 6.648C22.3278 6.61333 22.3452 6.596 22.3452 6.596C22.3798 6.596 22.3972 6.596 22.3972 6.596C22.4318 6.52667 22.4665 6.47467 22.5012 6.44C22.5705 6.40533 22.6225 6.37067 22.6572 6.336L22.7612 6.128C22.8305 6.05867 23.0732 5.90267 23.4892 5.66C23.9052 5.41733 24.2172 5.296 24.4252 5.296H24.6852C24.6852 5.296 24.6852 5.31333 24.6852 5.348C24.6852 5.348 24.7025 5.348 24.7372 5.348C24.7718 5.348 24.8065 5.348 24.8412 5.348C24.8758 5.31333 24.9105 5.296 24.9452 5.296C24.9452 5.296 24.9972 5.348 25.1012 5.452C25.1358 5.48667 25.1705 5.504 25.2052 5.504C25.2398 5.46933 25.2745 5.452 25.3092 5.452C25.3438 5.48667 25.3612 5.52133 25.3612 5.556C25.3612 5.59067 25.3785 5.608 25.4132 5.608C25.4825 5.608 25.4998 5.608 25.4652 5.608C25.4652 5.57333 25.4825 5.556 25.5172 5.556C25.5518 5.556 25.5692 5.59067 25.5692 5.66C25.5692 5.72933 25.5865 5.79867 25.6212 5.868C25.5865 5.972 25.5518 6.09333 25.5172 6.232C25.5172 6.336 25.4998 6.42267 25.4652 6.492C25.1532 6.908 24.9105 7.116 24.7372 7.116C24.7372 7.15067 24.6852 7.22 24.5812 7.324C24.4772 7.324 24.3558 7.35867 24.2172 7.428C24.0785 7.49733 23.9398 7.56667 23.8012 7.636V7.792C23.8012 7.93067 23.7492 8 23.6452 8C23.5758 7.96533 23.5065 8.01733 23.4372 8.156V8.208C23.5065 8.312 23.6278 8.364 23.8012 8.364L24.1652 8.416C24.2345 8.416 24.2692 8.39867 24.2692 8.364C24.3038 8.32933 24.3385 8.312 24.3732 8.312C24.4078 8.312 24.4252 8.32933 24.4252 8.364C24.4252 8.364 24.4425 8.364 24.4772 8.364C24.5465 8.364 24.5985 8.34667 24.6332 8.312C24.6678 8.27733 24.7025 8.26 24.7372 8.26L25.2052 8.312C25.1012 8.13867 25.0492 8 25.0492 7.896C25.0492 7.72267 25.2052 7.61867 25.5172 7.584C26.0025 7.584 26.4185 7.75733 26.7652 8.104C26.8345 8.06933 26.9212 8.06933 27.0252 8.104C27.1292 8.13867 27.2332 8.13867 27.3372 8.104L27.5972 7.948L27.6492 8C27.7878 7.93067 27.8745 7.896 27.9092 7.896C27.9785 7.896 27.9958 7.91333 27.9612 7.948C27.9612 7.948 27.9785 7.948 28.0132 7.948C28.0132 7.948 28.0478 7.91333 28.1172 7.844C28.1518 7.844 28.1865 7.86133 28.2212 7.896C28.2905 7.896 28.3425 7.87867 28.3772 7.844L28.5332 7.688H29.1572L29.2092 7.636C29.2785 7.60133 29.3652 7.56667 29.4692 7.532C29.6078 7.46267 29.7292 7.428 29.8332 7.428C29.8332 7.39333 29.8678 7.376 29.9372 7.376C30.0065 7.34133 30.0585 7.324 30.0932 7.324H30.1972C30.3705 7.324 30.4572 7.376 30.4572 7.48C30.4572 7.584 30.4052 7.67067 30.3012 7.74C30.2665 7.77467 30.2145 7.792 30.1452 7.792C30.0758 7.75733 30.0065 7.75733 29.9372 7.792C29.7985 7.93067 29.6945 8 29.6252 8C29.5905 8 29.5732 8 29.5732 8C29.5732 7.96533 29.5558 7.948 29.5212 7.948C29.4865 7.948 29.4172 8 29.3132 8.104L28.9492 8.156H28.8972C28.8278 8.156 28.7932 8.19067 28.7932 8.26C28.6545 8.26 28.5158 8.27733 28.3772 8.312C28.2385 8.312 28.0998 8.32933 27.9612 8.364L27.9092 8.416C27.8745 8.416 27.8398 8.43333 27.8052 8.468C27.7705 8.468 27.7185 8.468 27.6492 8.468C27.5798 8.50267 27.3892 8.52 27.0772 8.52C27.2852 8.79733 27.4238 9.05733 27.4932 9.3C27.5625 9.47333 27.6145 9.75067 27.6492 10.132C27.7185 10.4787 27.7358 10.7387 27.7012 10.912C27.7012 11.016 27.6665 11.0507 27.5972 11.016C27.5278 10.9467 27.4932 10.9467 27.4932 11.016C27.4932 11.12 27.5278 11.1893 27.5972 11.224C27.7012 11.224 27.7532 11.3107 27.7532 11.484C27.7532 11.588 27.7358 11.7267 27.7012 11.9C27.6665 12.0387 27.6318 12.1947 27.5972 12.368C27.5625 12.576 27.5105 12.8013 27.4412 13.044C27.4065 13.252 27.3198 13.46 27.1812 13.668L27.0252 13.928V14.24C27.0252 14.5173 26.9385 14.708 26.7652 14.812C26.6265 14.916 26.5225 15.0373 26.4532 15.176C26.3838 15.384 26.3318 15.5227 26.2972 15.592C26.2972 15.6613 26.2278 15.8 26.0892 16.008C25.6385 16.7013 25.1012 17.36 24.4772 17.984C23.8532 18.608 23.2465 19.18 22.6572 19.7C22.1372 20.1507 21.4265 20.5667 20.5252 20.948C19.6585 21.2947 18.8092 21.468 17.9772 21.468ZM18.4972 20.532C18.6012 20.532 18.8092 20.5147 19.1212 20.48C19.4332 20.4107 19.7625 20.2547 20.1092 20.012C20.1785 19.9773 20.2478 19.9947 20.3172 20.064C20.3865 20.1333 20.4558 20.1507 20.5252 20.116C20.6985 20.0467 20.7678 19.9947 20.7332 19.96C20.6985 19.9253 20.7505 19.8907 20.8892 19.856H20.9412C21.1492 19.856 21.2358 19.8387 21.2012 19.804C21.2012 19.7347 21.2185 19.648 21.2532 19.544C21.2532 19.44 21.3052 19.3533 21.4092 19.284C21.5132 19.2147 21.5998 19.1627 21.6692 19.128C22.0505 18.816 22.5185 18.296 23.0732 17.568C23.6278 16.8053 24.1825 16.0427 24.7372 15.28C24.7718 15.2107 24.8238 15.1933 24.8932 15.228C24.9625 15.2627 25.0145 15.2627 25.0492 15.228C25.0838 15.1933 25.1012 15.0893 25.1012 14.916C25.1012 14.812 25.1532 14.656 25.2572 14.448C25.3612 14.2053 25.4652 14.0147 25.5692 13.876C25.6038 13.772 25.6732 13.5813 25.7772 13.304C25.8812 12.992 25.9678 12.7147 26.0372 12.472C26.1412 12.1947 26.1585 12.056 26.0892 12.056C26.0198 12.0213 25.9852 11.9867 25.9852 11.952C25.9852 11.8827 26.0892 11.8133 26.2972 11.744C26.5052 11.6747 26.4878 11.6227 26.2452 11.588C26.1758 11.5533 26.1932 11.484 26.2972 11.38C26.4012 11.276 26.3492 11.2067 26.1412 11.172C25.9678 11.1373 25.8985 11.0853 25.9332 11.016C26.0025 10.9467 26.0545 10.8947 26.0892 10.86C26.1932 10.756 26.2452 10.652 26.2452 10.548C26.2452 10.236 26.1585 9.924 25.9852 9.612C25.8465 9.3 25.6905 9.02267 25.5172 8.78C25.3092 8.91867 25.2052 8.988 25.2052 8.988C25.1705 8.988 25.1532 8.988 25.1532 8.988C25.1532 8.95333 25.1185 8.936 25.0492 8.936C25.0145 8.936 24.9972 8.936 24.9972 8.936C24.9972 8.90133 24.9798 8.884 24.9452 8.884C24.9105 8.884 24.8758 8.90133 24.8412 8.936C24.8065 8.97067 24.7892 8.988 24.7892 8.988C24.7545 9.02267 24.6852 9.04 24.5812 9.04C24.5118 9.04 24.4598 9.04 24.4252 9.04C24.3905 9.04 24.3558 9.02267 24.3212 8.988C24.3212 8.95333 24.3038 8.936 24.2692 8.936C24.2345 8.936 24.1825 8.97067 24.1132 9.04C24.0785 9.10933 24.0265 9.144 23.9572 9.144C23.9225 9.144 23.9052 9.12667 23.9052 9.092C23.9052 9.05733 23.8705 9.04 23.8012 9.04C23.7665 9.04 23.7318 9.05733 23.6972 9.092C23.6972 9.12667 23.6798 9.144 23.6452 9.144C23.6105 9.144 23.5412 9.092 23.4372 8.988H23.3852C23.3852 9.196 23.3332 9.3 23.2292 9.3C23.1945 9.3 23.1425 9.26533 23.0732 9.196C22.6918 9.43867 22.0505 10.0107 21.1492 10.912C20.2478 11.7787 19.4505 12.784 18.7572 13.928C18.6185 14.2053 18.4452 14.5347 18.2372 14.916C18.0638 15.2973 17.9078 15.7307 17.7692 16.216C17.7345 16.424 17.6305 16.58 17.4572 16.684C17.3185 16.788 17.2145 16.9093 17.1452 17.048C17.1105 17.1867 17.1278 17.2733 17.1972 17.308C17.2665 17.3427 17.3185 17.3947 17.3532 17.464C17.3532 17.6027 17.3185 17.7933 17.2492 18.036C17.2145 18.2787 17.1972 18.504 17.1972 18.712C17.1972 19.3707 17.3185 19.8387 17.5612 20.116C17.8385 20.3933 18.1505 20.532 18.4972 20.532ZM29.435 21.156C29.227 21.156 29.123 21.0347 29.123 20.792C29.123 20.6187 29.175 20.4107 29.279 20.168C29.5564 19.5787 29.8857 18.7467 30.267 17.672C30.6484 16.5973 31.1164 15.6787 31.671 14.916L33.699 10.392C33.699 10.392 33.6644 10.3747 33.595 10.34C33.5257 10.2707 33.491 10.2013 33.491 10.132C33.283 9.99333 33.0577 9.80267 32.815 9.56C32.607 9.28267 32.5897 9.00533 32.763 8.728C32.8324 8.65867 32.8844 8.624 32.919 8.624C32.9537 8.624 32.971 8.624 32.971 8.624V8.52C32.971 8.38133 33.023 8.29467 33.127 8.26C33.2657 8.22533 33.3524 8.17333 33.387 8.104C33.4564 7.61867 33.855 7.25467 34.583 7.012C35.3457 6.76933 36.0217 6.648 36.611 6.648C37.2004 6.648 37.495 6.73467 37.495 6.908C37.495 7.012 37.391 7.13333 37.183 7.272C37.1137 7.34133 36.9404 7.49733 36.663 7.74C36.4204 7.98267 36.195 8.27733 35.987 8.624L35.623 9.248L35.259 9.716C34.7044 10.7213 34.2537 11.5707 33.907 12.264C33.5604 12.9573 33.1444 13.8413 32.659 14.916C32.555 15.124 32.503 15.2973 32.503 15.436C32.503 15.6093 32.5724 15.696 32.711 15.696C32.7804 15.696 32.8497 15.6787 32.919 15.644C33.023 15.5747 33.127 15.5227 33.231 15.488C33.5084 15.3147 33.7337 15.1587 33.907 15.02C34.115 14.8467 34.3404 14.6733 34.583 14.5C34.687 14.396 34.7737 14.396 34.843 14.5C34.9124 14.5693 34.9124 14.6733 34.843 14.812C34.7044 15.0893 34.6004 15.2627 34.531 15.332C34.4964 15.3667 34.4444 15.4013 34.375 15.436C34.3057 15.4707 34.1497 15.6267 33.907 15.904L33.699 16.32C33.6297 16.3893 33.543 16.528 33.439 16.736C33.3697 16.9093 33.335 17.0133 33.335 17.048C33.335 17.1173 33.3004 17.152 33.231 17.152C33.1617 17.1173 33.0577 17.1693 32.919 17.308C32.8844 17.3427 32.867 17.412 32.867 17.516C32.9017 17.62 32.8844 17.7067 32.815 17.776C32.7804 17.88 32.7284 17.9667 32.659 18.036C32.5897 18.0707 32.555 18.1053 32.555 18.14C32.5204 18.2787 32.451 18.3653 32.347 18.4C32.2777 18.4 32.2084 18.4347 32.139 18.504C32.1044 18.504 32.087 18.5387 32.087 18.608C32.087 18.8853 32.0524 19.0067 31.983 18.972C31.9137 18.9373 31.8444 18.972 31.775 19.076C31.7057 19.2147 31.619 19.284 31.515 19.284C31.307 19.3533 31.2204 19.4053 31.255 19.44C31.2897 19.4747 31.3417 19.5093 31.411 19.544C31.4804 19.544 31.4284 19.596 31.255 19.7C31.151 19.7347 31.0644 19.8387 30.995 20.012C30.9257 20.1507 30.8564 20.2547 30.787 20.324C30.7177 20.3933 30.631 20.4453 30.527 20.48C30.423 20.5147 30.3364 20.584 30.267 20.688C29.955 21 29.6777 21.156 29.435 21.156ZM44.931 20.74C44.7924 20.74 44.671 20.74 44.567 20.74C44.463 20.7053 44.359 20.6707 44.255 20.636C43.9084 20.5667 43.5964 20.4627 43.319 20.324C43.0764 20.1853 42.8684 19.9253 42.695 19.544C42.6604 19.3707 42.5737 19.1453 42.435 18.868C42.331 18.5907 42.2617 18.3307 42.227 18.088C42.1924 17.9147 42.175 17.7067 42.175 17.464C42.1404 17.2907 42.123 17.0653 42.123 16.788C42.0537 16.4413 42.019 16.1293 42.019 15.852C42.0537 15.5747 42.071 15.2453 42.071 14.864C42.071 14.4827 42.0884 14.2053 42.123 14.032C42.1924 13.72 42.227 13.564 42.227 13.564C42.227 13.5293 42.227 13.356 42.227 13.044C42.2617 12.628 42.279 12.1947 42.279 11.744C42.279 11.2933 42.2964 10.9293 42.331 10.652C42.435 9.612 42.227 9.092 41.707 9.092C41.499 9.092 41.2217 9.17867 40.875 9.352C40.8404 9.456 40.771 9.52533 40.667 9.56C40.5977 9.56 40.4937 9.59467 40.355 9.664L40.095 9.82C40.095 9.85467 40.0604 9.872 39.991 9.872C39.9217 9.83733 39.887 9.85467 39.887 9.924C39.9217 10.0627 39.9044 10.1493 39.835 10.184C39.8004 10.2187 39.7484 10.2013 39.679 10.132L39.107 10.548C39.107 10.5827 39.055 10.652 38.951 10.756L38.899 10.808C38.7604 10.9467 38.639 11.016 38.535 11.016L38.379 11.172C38.379 11.2067 38.3444 11.276 38.275 11.38C38.2404 11.4493 38.1537 11.4667 38.015 11.432L37.755 11.692C37.6164 11.9 37.495 12.0213 37.391 12.056C37.3217 12.0907 37.235 12.1253 37.131 12.16L36.715 12.68L36.507 12.732C36.507 12.8707 36.351 13.0787 36.039 13.356C35.7617 13.6333 35.571 13.824 35.467 13.928C35.363 14.032 35.259 14.084 35.155 14.084C35.0857 14.084 35.051 14.0493 35.051 13.98C35.051 13.9453 35.1377 13.8067 35.311 13.564C35.4497 13.4253 35.6577 13.1653 35.935 12.784C36.247 12.4027 36.4204 12.2293 36.455 12.264C36.6284 12.0907 36.7497 11.9173 36.819 11.744C36.8884 11.536 37.0097 11.3627 37.183 11.224C37.183 11.2587 37.183 11.2933 37.183 11.328C37.2177 11.328 37.235 11.328 37.235 11.328C37.3044 11.328 37.391 11.2413 37.495 11.068C37.599 10.86 37.6684 10.7733 37.703 10.808L38.587 10.028C38.587 9.99333 38.6737 9.924 38.847 9.82C38.9857 9.75067 39.0724 9.716 39.107 9.716C39.1417 9.716 39.2284 9.612 39.367 9.404L39.731 9.144C39.7657 9.07467 39.8004 9.092 39.835 9.196C39.9044 9.26533 39.9564 9.28267 39.991 9.248L40.147 8.884C40.2164 8.78 40.3204 8.69333 40.459 8.624C40.6324 8.52 40.8057 8.416 40.979 8.312C41.395 7.896 41.707 7.688 41.915 7.688H42.123C42.5737 7.51467 42.9897 7.428 43.371 7.428C43.9257 7.428 44.359 7.636 44.671 8.052C44.7404 8.156 44.8097 8.34667 44.879 8.624C44.9484 8.65867 44.9657 8.71067 44.931 8.78C44.931 8.81467 44.9484 8.86667 44.983 8.936C45.0177 9.00533 45.087 9.092 45.191 9.196C45.295 9.26533 45.347 9.352 45.347 9.456V9.56C45.347 9.69867 45.2604 9.82 45.087 9.924C45.2604 10.0627 45.3297 10.1493 45.295 10.184C45.295 10.184 45.2777 10.236 45.243 10.34L45.139 11.068C45.1044 11.3107 45.0524 11.5013 44.983 11.64C44.9137 11.744 44.8444 11.9347 44.775 12.212C44.9137 12.42 44.9137 12.5587 44.775 12.628H44.671L44.619 12.836C44.619 12.9053 44.6537 12.9747 44.723 13.044L44.567 13.356C44.6017 13.3213 44.619 13.3213 44.619 13.356C44.6537 13.356 44.671 13.356 44.671 13.356C44.6364 13.4253 44.5844 13.564 44.515 13.772C44.4457 13.9453 44.3937 14.084 44.359 14.188C44.3244 14.3613 44.255 14.448 44.151 14.448C44.047 14.448 44.0124 14.5347 44.047 14.708C44.0817 14.7427 44.099 14.864 44.099 15.072C44.1337 15.2453 44.1164 15.332 44.047 15.332L43.943 15.956V16.112C43.943 16.2853 43.9084 16.4587 43.839 16.632C43.8044 16.8053 43.7697 16.9787 43.735 17.152C43.7004 17.3253 43.6657 17.516 43.631 17.724C43.631 17.8973 43.631 18.0707 43.631 18.244C43.631 18.3827 43.631 18.5387 43.631 18.712C43.6657 18.8507 43.7004 18.9893 43.735 19.128C43.735 19.1627 43.787 19.2667 43.891 19.44C43.995 19.6133 44.047 19.7173 44.047 19.752L44.203 19.908C44.2724 19.9427 44.3764 19.9427 44.515 19.908C44.6884 19.8733 44.8097 19.8907 44.879 19.96C45.191 19.9947 45.5897 19.8387 46.075 19.492C46.595 19.1107 47.063 18.6947 47.479 18.244C47.583 18.14 47.687 18.088 47.791 18.088C47.8604 18.088 47.9124 18.14 47.947 18.244C47.9817 18.348 47.947 18.4867 47.843 18.66C47.2884 19.4573 46.7684 20.012 46.283 20.324C45.7977 20.6013 45.347 20.74 44.931 20.74ZM53.3575 21.208C53.3228 21.208 53.2708 21.1733 53.2015 21.104C53.1322 21.0693 53.0802 21.052 53.0455 21.052C52.9068 21.0867 52.7855 21.104 52.6815 21.104C52.5775 21.104 52.4735 21.104 52.3695 21.104C52.3348 21.104 52.3002 21.0867 52.2655 21.052C52.2655 21.0173 52.2482 21 52.2135 21C52.1788 21 52.1615 21 52.1615 21C52.1962 21.0347 52.1962 21.052 52.1615 21.052C52.1615 21.052 52.1268 21.0347 52.0575 21C51.9882 20.9653 51.9362 20.948 51.9015 20.948L51.8495 20.896C51.7802 20.896 51.7282 20.8787 51.6935 20.844C51.6935 20.8093 51.6762 20.792 51.6415 20.792L51.5895 20.844L51.5375 20.792C51.4682 20.7573 51.3642 20.7227 51.2255 20.688C51.1215 20.6187 51.0348 20.5667 50.9655 20.532C50.8962 20.532 50.8095 20.48 50.7055 20.376H50.6015C50.5322 20.272 50.4108 20.2027 50.2375 20.168C50.2375 20.1333 50.2202 20.0987 50.1855 20.064H50.1335C50.0642 19.96 50.0122 19.9253 49.9775 19.96C49.9428 19.8907 49.8908 19.8387 49.8215 19.804C49.7868 19.7347 49.7348 19.6827 49.6655 19.648C49.6655 19.5093 49.6308 19.44 49.5615 19.44C49.5615 19.3707 49.4922 19.2667 49.3535 19.128C49.2495 18.9893 49.1802 18.868 49.1455 18.764L49.0935 18.712C48.9548 18.5733 48.8508 18.348 48.7815 18.036C48.7468 17.8973 48.7122 17.8453 48.6775 17.88C48.6775 17.9147 48.6602 17.828 48.6255 17.62C48.6255 17.5853 48.6255 17.5333 48.6255 17.464C48.6602 17.36 48.6602 17.2907 48.6255 17.256C48.6255 17.2213 48.6082 17.204 48.5735 17.204C48.5735 17.1693 48.5735 17.1347 48.5735 17.1C48.5388 17.0653 48.5215 17.048 48.5215 17.048C48.5562 17.0133 48.5735 16.996 48.5735 16.996C48.5735 16.9267 48.5562 16.892 48.5215 16.892C48.5215 16.8573 48.5215 16.8227 48.5215 16.788V16.684C48.5215 16.5107 48.5562 16.3893 48.6255 16.32C48.6255 16.2507 48.6428 16.1987 48.6775 16.164C48.7122 16.1293 48.7295 16.0947 48.7295 16.06C48.7295 15.9907 48.7642 15.956 48.8335 15.956C48.9028 15.956 48.9375 15.9387 48.9375 15.904C48.9375 15.8347 48.9548 15.8 48.9895 15.8C49.0588 15.7653 49.1108 15.7307 49.1455 15.696C49.1455 15.6613 49.1628 15.6267 49.1975 15.592C49.2668 15.5573 49.3015 15.5227 49.3015 15.488C49.4748 15.384 49.6655 15.332 49.8735 15.332C50.2895 15.332 50.4975 15.436 50.4975 15.644C50.4975 15.7133 50.3935 15.8347 50.1855 16.008C50.1508 16.112 50.1335 16.1813 50.1335 16.216C50.1682 16.216 50.1508 16.2507 50.0815 16.32C50.1162 16.424 50.1335 16.5627 50.1335 16.736C50.0988 16.736 50.0815 16.788 50.0815 16.892C50.1162 16.9613 50.1335 16.996 50.1335 16.996C50.1335 17.0307 50.1508 17.1347 50.1855 17.308C50.2548 17.4813 50.3068 17.5853 50.3415 17.62C50.3415 17.62 50.3762 17.7067 50.4455 17.88C50.5148 18.0187 50.5495 18.1053 50.5495 18.14V18.244C50.6188 18.348 50.6535 18.4173 50.6535 18.452C50.6882 18.452 50.8268 18.5213 51.0695 18.66C51.1042 18.6947 51.1735 18.712 51.2775 18.712C51.4508 18.816 51.5722 18.9027 51.6415 18.972C51.7455 19.0413 51.9882 19.1107 52.3695 19.18C52.5082 19.2147 52.5602 19.2493 52.5255 19.284C52.5255 19.284 52.5948 19.284 52.7335 19.284C52.7335 19.284 52.7335 19.3013 52.7335 19.336C52.7335 19.336 52.7508 19.336 52.7855 19.336C52.8548 19.3013 52.9242 19.3013 52.9935 19.336C53.0628 19.336 53.1322 19.3187 53.2015 19.284H53.4095C53.6522 19.284 53.9122 19.2493 54.1895 19.18L54.9695 18.972C55.2122 18.9373 55.4375 18.868 55.6455 18.764C55.8535 18.66 56.0442 18.556 56.2175 18.452C56.2522 18.452 56.3562 18.4 56.5295 18.296C56.7028 18.1573 56.9108 18.0187 57.1535 17.88C57.1188 17.776 57.1015 17.6373 57.1015 17.464C57.1015 17.36 57.1535 17.308 57.2575 17.308C57.3615 17.2733 57.4308 17.2213 57.4655 17.152C57.3615 17.0827 57.2228 17.048 57.0495 17.048C56.9108 17.048 56.8588 16.996 56.8935 16.892C56.7548 16.1293 56.5468 15.436 56.2695 14.812C56.0268 14.188 55.7322 13.4947 55.3855 12.732C55.3508 12.628 55.2815 12.4547 55.1775 12.212C55.0735 11.9693 55.0042 11.7787 54.9695 11.64C54.9695 11.6053 55.0042 11.6053 55.0735 11.64C55.1428 11.64 55.1602 11.6227 55.1255 11.588C55.0908 11.4147 55.0562 11.2413 55.0215 11.068C55.0215 10.8947 55.0042 10.7387 54.9695 10.6C54.9348 10.5307 54.9695 10.4787 55.0735 10.444C55.1775 10.4093 55.2122 10.3573 55.1775 10.288C55.1428 10.2187 55.0735 10.2013 54.9695 10.236C54.8655 10.2707 54.7962 10.2533 54.7615 10.184L54.6055 9.56C54.6055 9.38667 54.5708 9.28267 54.5015 9.248C54.4668 9.21333 54.5015 9.144 54.6055 9.04C54.6748 9.00533 54.7095 8.95333 54.7095 8.884C54.7095 8.78 54.7268 8.71067 54.7615 8.676C54.9348 8.572 55.0042 8.45067 54.9695 8.312C54.9348 8.13867 54.9695 7.98267 55.0735 7.844C55.1775 7.70533 55.2642 7.584 55.3335 7.48C55.4028 7.34133 55.5068 7.25467 55.6455 7.22C55.7495 7.15067 55.7842 7.168 55.7495 7.272C55.7148 7.376 55.7148 7.428 55.7495 7.428C55.9228 7.428 55.9922 7.34133 55.9575 7.168C55.9228 6.99467 55.9748 6.83867 56.1135 6.7C56.3562 6.492 56.7202 6.31867 57.2055 6.18C57.6908 6.04133 58.0548 5.95467 58.2975 5.92C58.3668 5.92 58.4188 5.92 58.4535 5.92C58.5228 5.88533 58.5748 5.868 58.6095 5.868C58.7828 5.868 58.9562 5.88533 59.1295 5.92C59.3375 5.95467 59.5282 5.98933 59.7015 6.024C59.8402 6.05867 60.0482 6.19733 60.3255 6.44C60.6028 6.648 60.8108 6.7 60.9495 6.596C61.2615 6.31867 61.5908 6.076 61.9375 5.868C62.3188 5.66 62.5615 5.57333 62.6655 5.608C62.9428 5.64267 63.1855 5.72933 63.3935 5.868C63.6015 5.972 63.6708 6.31867 63.6015 6.908C63.5668 7.116 63.4802 7.28933 63.3415 7.428C63.2375 7.532 63.1335 7.67067 63.0295 7.844L62.6655 8.364C62.5268 8.60667 62.3535 8.84933 62.1455 9.092C61.9722 9.33467 61.8162 9.49067 61.6775 9.56C61.5388 9.62933 61.4002 9.75067 61.2615 9.924C61.1575 10.0627 61.0188 10.2013 60.8455 10.34C60.6722 10.4787 60.4815 10.5827 60.2735 10.652C60.1002 10.6867 59.9788 10.7213 59.9095 10.756C59.8055 10.7907 59.6495 10.808 59.4415 10.808C59.2682 10.7733 59.2162 10.704 59.2855 10.6C59.3548 10.5653 59.3722 10.5307 59.3375 10.496C59.3028 10.4267 59.2855 10.3747 59.2855 10.34C59.2855 10.2707 59.3202 10.2187 59.3895 10.184C59.4935 10.1493 59.5628 10.0973 59.5975 10.028C59.6322 9.99333 59.7188 9.872 59.8575 9.664C60.0308 9.456 60.1002 9.33467 60.0655 9.3C60.0655 9.196 60.1002 9.10933 60.1695 9.04C60.1695 8.97067 60.1695 8.91867 60.1695 8.884C60.1695 8.81467 60.2042 8.76267 60.2735 8.728C60.4122 8.69333 60.4815 8.64133 60.4815 8.572V7.948C60.4815 7.80933 60.4642 7.67067 60.4295 7.532C60.4295 7.39333 60.3948 7.272 60.3255 7.168C60.0482 6.82133 59.5975 6.648 58.9735 6.648C58.5228 6.648 58.0895 6.752 57.6735 6.96C57.2228 7.168 56.8415 7.51467 56.5295 8C56.2868 8.34667 56.1655 8.71067 56.1655 9.092C56.1655 9.36933 56.2175 9.64667 56.3215 9.924C56.4602 10.2013 56.5815 10.4613 56.6855 10.704C56.7895 10.9467 56.9282 11.2413 57.1015 11.588C57.3095 11.9347 57.4655 12.212 57.5695 12.42C57.7428 12.6973 57.9335 13.0267 58.1415 13.408C58.3495 13.7547 58.5055 14.084 58.6095 14.396C58.6442 14.4307 58.6095 14.4653 58.5055 14.5C58.4362 14.5 58.4188 14.5347 58.4535 14.604C58.4882 14.6733 58.5402 14.708 58.6095 14.708C58.6788 14.708 58.7308 14.7427 58.7655 14.812C58.8348 14.916 58.8348 15.0027 58.7655 15.072C58.7308 15.1413 58.7308 15.2453 58.7655 15.384C58.7655 15.4187 58.8002 15.4533 58.8695 15.488C58.9388 15.5227 58.9735 15.5573 58.9735 15.592C59.1468 16.0427 59.2335 16.4067 59.2335 16.684C59.5455 16.5107 59.8922 16.3027 60.2735 16.06C60.6548 15.8173 60.8628 15.592 60.8975 15.384C60.9322 15.3147 60.9842 15.2973 61.0535 15.332C61.1575 15.332 61.2095 15.3667 61.2095 15.436C61.1748 15.6787 60.8802 16.008 60.3255 16.424C59.8055 16.84 59.4068 17.1347 59.1295 17.308C59.1642 17.3427 59.1468 17.4293 59.0775 17.568C59.0082 17.7067 58.9908 17.8107 59.0255 17.88C59.0255 17.9147 59.0082 17.9667 58.9735 18.036C58.9388 18.0707 58.9042 18.1227 58.8695 18.192C58.8695 18.3307 58.8348 18.4347 58.7655 18.504V18.608L58.6095 18.712C58.5748 18.7467 58.5228 18.8333 58.4535 18.972C58.4188 19.076 58.3668 19.1627 58.2975 19.232H58.1415C58.0722 19.3013 58.0375 19.388 58.0375 19.492C57.9682 19.596 57.8122 19.7173 57.5695 19.856C57.3268 19.96 57.1708 20.064 57.1015 20.168C57.1015 20.168 57.0842 20.168 57.0495 20.168C57.0148 20.168 56.9628 20.2027 56.8935 20.272H56.7375C56.7028 20.272 56.6682 20.3067 56.6335 20.376C56.5988 20.4107 56.5642 20.4453 56.5295 20.48C56.4255 20.48 56.3735 20.5147 56.3735 20.584C56.2348 20.584 56.1308 20.6013 56.0615 20.636L55.5415 20.74C55.4028 20.8787 55.2815 20.948 55.1775 20.948L55.1255 20.896C55.0562 20.9653 55.0042 21 54.9695 21H54.7615C54.7268 21 54.6922 21.0173 54.6575 21.052C54.6228 21.0867 54.5882 21.104 54.5535 21.104H54.4495C54.4148 21.104 54.3802 21.104 54.3455 21.104C54.3455 21.1387 54.3108 21.156 54.2415 21.156C54.1375 21.156 53.9815 21.156 53.7735 21.156C53.6002 21.156 53.4615 21.1733 53.3575 21.208ZM52.8375 20.74C52.8375 20.74 52.8722 20.74 52.9415 20.74C53.0455 20.7053 53.1148 20.688 53.1495 20.688C53.3228 20.688 53.4788 20.7053 53.6175 20.74C53.7562 20.74 53.8948 20.74 54.0335 20.74C54.1028 20.74 54.1375 20.7053 54.1375 20.636H54.2415C54.3455 20.532 54.3975 20.5147 54.3975 20.584C54.4322 20.6533 54.4842 20.6533 54.5535 20.584C54.6228 20.584 54.6575 20.5667 54.6575 20.532L54.8655 20.428C54.9002 20.428 54.9175 20.428 54.9175 20.428C54.9175 20.3933 54.9348 20.376 54.9695 20.376H55.0735C55.1428 20.376 55.2122 20.3413 55.2815 20.272C55.3508 20.2027 55.3855 20.168 55.3855 20.168C55.3855 20.168 55.4375 20.116 55.5415 20.012C55.5415 20.012 55.5588 20.012 55.5935 20.012C55.6282 19.9773 55.6628 19.96 55.6975 19.96C55.7668 19.8907 55.8362 19.856 55.9055 19.856C55.9055 19.8213 55.9402 19.7867 56.0095 19.752C56.0788 19.6827 56.1135 19.648 56.1135 19.648C56.1482 19.6133 56.1828 19.596 56.2175 19.596C56.2868 19.5613 56.3215 19.5267 56.3215 19.492C56.3908 19.492 56.5295 19.3707 56.7375 19.128C56.9455 18.8853 57.0842 18.5907 57.1535 18.244C57.1535 18.1747 57.0495 18.2267 56.8415 18.4C56.6335 18.5387 56.5295 18.608 56.5295 18.608C56.4255 18.6427 56.3215 18.712 56.2175 18.816C56.1135 18.8853 56.0268 18.92 55.9575 18.92C55.9228 18.92 55.8708 18.9547 55.8015 19.024C55.7668 19.0587 55.7322 19.076 55.6975 19.076C55.6628 19.076 55.6455 19.0933 55.6455 19.128C55.6455 19.128 55.6108 19.1107 55.5415 19.076C55.5068 19.1453 55.4028 19.2147 55.2295 19.284C55.0562 19.3533 54.9348 19.388 54.8655 19.388H54.7095L54.6575 19.44C54.6575 19.44 54.6402 19.4573 54.6055 19.492C54.5708 19.492 54.5362 19.492 54.5015 19.492L54.1375 19.544H54.0855C54.0508 19.544 54.0162 19.5613 53.9815 19.596C53.8428 19.596 53.6868 19.6133 53.5135 19.648C53.3402 19.6827 53.2362 19.7 53.2015 19.7H53.1495C53.1495 19.6653 53.1322 19.648 53.0975 19.648V19.7H52.8375C52.7335 19.7 52.6122 19.6827 52.4735 19.648C52.3695 19.5787 52.2828 19.544 52.2135 19.544C52.1788 19.544 52.1615 19.5613 52.1615 19.596C52.1615 19.596 52.1442 19.596 52.1095 19.596H52.0055C51.9708 19.596 51.9535 19.5787 51.9535 19.544H51.6935C51.6935 19.44 51.6588 19.4227 51.5895 19.492H51.5375C51.3988 19.492 51.2775 19.44 51.1735 19.336C51.1042 19.232 50.9828 19.18 50.8095 19.18L50.6535 19.024C50.6535 19.0587 50.6362 19.0933 50.6015 19.128C50.6015 19.128 50.6015 19.1453 50.6015 19.18C50.6015 19.18 50.6188 19.2147 50.6535 19.284C50.7228 19.3187 50.7575 19.3533 50.7575 19.388L50.8615 19.596L51.0695 19.856L51.1735 19.96C51.2082 19.9947 51.2255 20.012 51.2255 20.012C51.2602 20.012 51.2948 20.0467 51.3295 20.116C51.3988 20.116 51.4335 20.168 51.4335 20.272C52.0228 20.584 52.4908 20.74 52.8375 20.74ZM65.9135 21.104C65.0468 21.104 64.2841 20.8613 63.6255 20.376C62.9668 19.8907 62.6375 19.0587 62.6375 17.88C62.6375 17.4293 62.6895 16.9787 62.7935 16.528C62.8975 16.0427 63.0188 15.5747 63.1575 15.124C63.2268 14.6733 63.3308 14.2747 63.4695 13.928C63.5041 13.7893 63.5215 13.72 63.5215 13.72C63.5561 13.6853 63.6428 13.6333 63.7815 13.564L64.1975 12.94V12.732C64.1628 12.732 64.1455 12.732 64.1455 12.732C64.1455 12.6973 64.1455 12.68 64.1455 12.68C64.1455 12.576 64.2321 12.4547 64.4055 12.316C64.5788 12.1773 64.6655 12.108 64.6655 12.108C64.7001 11.9347 64.7521 11.848 64.8215 11.848C64.8908 11.848 64.9775 11.796 65.0815 11.692H65.6535V11.588C65.6535 11.4147 65.5668 11.3453 65.3935 11.38C65.2548 11.38 65.1855 11.3627 65.1855 11.328C65.1855 11.2933 65.2375 11.224 65.3415 11.12C65.4801 10.9813 65.5668 10.8947 65.6015 10.86C65.7055 10.7213 65.7921 10.6 65.8615 10.496C65.9308 10.3573 66.0348 10.2533 66.1735 10.184C66.7975 9.42133 67.1788 8.936 67.3175 8.728C67.4908 8.52 67.6641 8.364 67.8375 8.26C67.9068 8.26 67.9588 8.29467 67.9935 8.364C68.0628 8.39867 68.0628 8.45067 67.9935 8.52C68.0628 8.624 68.1148 8.64133 68.1495 8.572C68.2188 8.50267 68.2535 8.468 68.2535 8.468L68.4615 8.364C68.3921 8.29467 68.3575 8.208 68.3575 8.104C68.3575 7.93067 68.3921 7.792 68.4615 7.688C68.5308 7.54933 68.6521 7.41067 68.8255 7.272C69.0335 7.13333 69.1375 7.04667 69.1375 7.012C69.3455 6.94267 69.5015 6.87333 69.6055 6.804C69.7441 6.73467 69.8828 6.7 70.0215 6.7C70.2641 6.7 70.5068 6.78667 70.7495 6.96C71.4081 7.30667 71.9628 7.65333 72.4135 8C72.8641 8.34667 73.0895 8.832 73.0895 9.456C73.0895 10.1147 72.8121 10.6867 72.2575 11.172C71.7375 11.6227 71.0961 12.004 70.3335 12.316C69.5708 12.628 68.8081 12.888 68.0455 13.096C67.3175 13.2693 66.7455 13.408 66.3295 13.512C66.0868 13.5467 65.9655 13.6507 65.9655 13.824C66.0001 13.9627 65.9828 14.1187 65.9135 14.292L65.5495 14.864L65.2375 15.592L64.9775 16.06C64.7348 16.268 64.6481 16.424 64.7175 16.528C64.7868 16.632 64.9081 16.6147 65.0815 16.476C65.1161 16.5107 65.1335 16.5627 65.1335 16.632C65.1335 16.7707 65.0988 16.944 65.0295 17.152C64.9601 17.3253 64.9081 17.464 64.8735 17.568C64.8388 17.7067 64.8388 17.776 64.8735 17.776C64.9428 17.7413 64.9775 17.8107 64.9775 17.984L65.0295 18.712C65.2375 19.3707 65.7055 19.752 66.4335 19.856C66.5028 19.856 66.5721 19.8733 66.6415 19.908C66.7455 19.908 66.8321 19.908 66.9015 19.908C67.5255 19.908 67.8548 19.856 67.8895 19.752C67.9588 19.648 68.0455 19.5787 68.1495 19.544C68.4615 19.4747 68.7215 19.4053 68.9295 19.336C69.1721 19.2667 69.4148 19.1627 69.6575 19.024C70.0735 18.8507 70.4721 18.6253 70.8535 18.348C71.2348 18.0707 71.6335 17.7933 72.0495 17.516L72.5695 17.152C72.6041 17.0827 72.6041 17.0307 72.5695 16.996C72.5348 16.9613 72.5348 16.9267 72.5695 16.892C72.6388 16.8573 72.6908 16.8573 72.7255 16.892C72.7948 16.892 72.8468 16.8747 72.8815 16.84C72.9508 16.8053 73.0201 16.7533 73.0895 16.684C73.1588 16.58 73.2281 16.4933 73.2975 16.424C73.3668 16.3547 73.4015 16.2853 73.4015 16.216C73.4361 16.1467 73.4881 16.0773 73.5575 16.008C73.8348 15.7307 74.1121 15.436 74.3895 15.124C74.7015 14.812 74.9615 14.5347 75.1695 14.292C75.4121 13.9453 75.6028 13.772 75.7415 13.772C75.8108 13.772 75.8455 13.8067 75.8455 13.876C75.8455 14.0493 75.7241 14.3093 75.4815 14.656C74.8921 15.5227 74.2161 16.372 73.4535 17.204C72.6908 18.0013 71.8588 18.7293 70.9575 19.388C70.2988 19.8387 69.5188 20.2373 68.6175 20.584C67.7161 20.9307 66.8148 21.104 65.9135 21.104ZM66.6935 12.732C67.2135 12.6973 67.8895 12.5587 68.7215 12.316C69.5535 12.0387 70.2468 11.6747 70.8015 11.224C71.3908 10.7387 71.6855 10.2013 71.6855 9.612C71.6855 9.05733 71.3908 8.52 70.8015 8C70.3161 8.34667 69.7788 8.84933 69.1895 9.508C68.6348 10.132 68.1321 10.756 67.6815 11.38C67.2308 11.9693 66.9015 12.42 66.6935 12.732ZM79.5208 21.156C78.2381 21.156 77.2675 20.9307 76.6088 20.48C75.9501 20.0293 75.4995 19.492 75.2568 18.868C75.0141 18.244 74.9448 17.5333 75.0488 16.736L75.1528 16.58C75.2221 16.476 75.2741 16.3373 75.3088 16.164C75.3435 15.9907 75.3781 15.8867 75.4128 15.852L75.8288 15.956C75.8981 15.9907 75.9501 15.9387 75.9848 15.8C76.0195 15.6613 76.0021 15.6093 75.9328 15.644C75.7248 15.6787 75.6208 15.7133 75.6208 15.748C75.6208 15.7827 75.5861 15.7133 75.5168 15.54L75.6728 15.436L75.6208 15.384C75.6208 15.3147 75.6555 15.28 75.7248 15.28L75.6208 15.124C75.6208 15.124 75.7595 15.1413 76.0368 15.176C76.3488 15.176 76.4701 15.1413 76.4008 15.072C76.4355 15.072 76.4181 15.0547 76.3488 15.02C76.2795 14.9507 76.2448 14.8987 76.2448 14.864C76.2101 14.8987 76.1928 14.8987 76.1928 14.864C76.1928 14.7947 76.0715 14.7947 75.8288 14.864C75.7248 14.8987 75.6728 14.8813 75.6728 14.812C75.6728 14.7427 75.6728 14.708 75.6728 14.708C75.7768 14.6733 75.8808 14.6387 75.9848 14.604C76.0888 14.5347 76.1581 14.4307 76.1928 14.292C76.2275 13.9453 76.2621 13.7547 76.2968 13.72C76.3315 13.6853 76.3661 13.6333 76.4008 13.564C76.4355 13.4947 76.4875 13.408 76.5568 13.304C76.6261 13.1653 76.6781 13.096 76.7128 13.096C76.6781 13.0613 76.6608 13.0093 76.6608 12.94C76.6608 12.7667 76.7821 12.6973 77.0248 12.732C77.3021 12.7667 77.3888 12.6627 77.2848 12.42C77.1808 12.2813 77.2328 12.212 77.4408 12.212L77.3888 12.16C77.5275 12.0907 77.6141 12.056 77.6488 12.056C77.7181 12.0213 77.6835 11.952 77.5448 11.848L77.7528 11.38C77.7875 11.3107 77.8568 11.2067 77.9608 11.068C78.0995 10.8947 78.3075 10.7213 78.5848 10.548C78.5848 10.548 78.5675 10.5653 78.5328 10.6C78.5328 10.6 78.5328 10.6173 78.5328 10.652H78.5848C78.6888 10.652 78.8795 10.548 79.1568 10.34C79.1221 10.3053 79.0528 10.288 78.9488 10.288C78.8795 10.2533 78.8275 10.2187 78.7928 10.184C78.7581 10.08 78.9315 9.85467 79.3128 9.508C79.6941 9.16133 80.1101 8.832 80.5608 8.52C81.0115 8.17333 81.2888 7.96533 81.3928 7.896C81.9128 7.61867 82.4848 7.39333 83.1088 7.22C83.7675 7.012 84.3395 6.96 84.8248 7.064C84.9288 7.09867 85.0848 7.23733 85.2928 7.48C85.5355 7.72267 85.7088 7.792 85.8128 7.688C86.1248 7.41067 86.4888 7.13333 86.9048 6.856C87.3208 6.57867 87.5635 6.45733 87.6328 6.492C87.8061 6.52667 87.9795 6.596 88.1528 6.7C88.3261 6.76933 88.4128 6.97733 88.4128 7.324C88.4128 7.56667 88.3955 7.77467 88.3608 7.948C88.3261 8.156 88.2395 8.32933 88.1008 8.468C87.9621 8.60667 87.8235 8.76267 87.6848 8.936C87.5461 9.144 87.2861 9.47333 86.9048 9.924C86.5581 10.34 86.2981 10.6 86.1248 10.704C86.0208 10.7387 85.8995 10.8427 85.7608 11.016C85.6568 11.1547 85.5181 11.2933 85.3448 11.432C85.2061 11.536 85.0328 11.6227 84.8248 11.692C84.6515 11.7267 84.5301 11.7613 84.4608 11.796C84.3915 11.8307 84.2701 11.848 84.0968 11.848C83.9581 11.8133 83.9235 11.744 83.9928 11.64C84.0275 11.6053 84.0275 11.5707 83.9928 11.536C83.9928 11.4667 83.9928 11.4147 83.9928 11.38C84.0275 11.3107 84.0795 11.2587 84.1488 11.224C84.2181 11.1893 84.2701 11.1373 84.3048 11.068C84.3395 11.0333 84.4261 10.912 84.5648 10.704C84.7381 10.496 84.8248 10.3747 84.8248 10.34C84.7901 10.3053 84.7901 10.2707 84.8248 10.236C84.8595 10.1667 84.8768 10.1147 84.8768 10.08C84.9115 10.0453 84.9288 9.99333 84.9288 9.924C84.9288 9.85467 84.9635 9.82 85.0328 9.82C85.1715 9.78533 85.2408 9.73333 85.2408 9.664C85.2408 9.38667 85.2581 9.12667 85.2928 8.884C85.3621 8.64133 85.3448 8.43333 85.2408 8.26C85.1021 7.98267 84.8421 7.844 84.4608 7.844C83.9408 7.844 83.3341 8.06933 82.6408 8.52C81.9475 8.936 81.4795 9.28267 81.2368 9.56C80.1275 10.808 79.2261 12.212 78.5328 13.772C77.8395 15.332 77.5621 16.7187 77.7008 17.932C77.7701 18.5213 78.0128 19.0067 78.4288 19.388C78.8448 19.7693 79.3128 19.96 79.8328 19.96H80.7168C80.8208 19.96 80.9248 19.96 81.0288 19.96C81.1675 19.9253 81.3061 19.8907 81.4448 19.856C81.6528 19.7867 81.8088 19.752 81.9128 19.752C82.0861 19.5787 82.1901 19.5787 82.2248 19.752C82.5021 19.6133 82.6235 19.5613 82.5888 19.596C82.5541 19.6307 82.6061 19.6307 82.7448 19.596C83.4381 19.4227 84.1141 19.128 84.7728 18.712C85.4315 18.296 86.0381 17.88 86.5928 17.464C86.6968 17.3947 86.8701 17.2907 87.1128 17.152C87.3555 17.0133 87.5288 16.9093 87.6328 16.84C87.7021 16.736 87.7541 16.6493 87.7888 16.58C87.8581 16.476 87.9448 16.4067 88.0488 16.372C88.1181 16.268 88.2048 16.164 88.3088 16.06C88.4128 15.9213 88.4821 15.8347 88.5168 15.8C88.6901 15.7307 88.7421 15.6787 88.6728 15.644C88.6035 15.5747 88.6901 15.488 88.9328 15.384C89.0021 15.3493 89.0715 15.332 89.1408 15.332C89.2101 15.332 89.2448 15.3667 89.2448 15.436C89.2448 15.5053 89.1408 15.696 88.9328 16.008C88.7941 16.2507 88.5341 16.5627 88.1528 16.944L87.6328 17.464L87.0088 17.776C86.9395 17.8453 86.9048 17.9147 86.9048 17.984C86.9048 18.0187 86.8701 18.0707 86.8008 18.14C85.8301 19.0067 84.7208 19.7347 83.4728 20.324C82.2595 20.8787 80.9421 21.156 79.5208 21.156ZM91.7875 21.156C91.5795 21.156 91.4755 21.0347 91.4755 20.792C91.4755 20.6187 91.5275 20.4107 91.6315 20.168C91.9088 19.5787 92.2208 18.7467 92.5675 17.672C92.9488 16.5973 93.4168 15.6787 93.9715 14.916L96.5715 9.56C96.3635 9.56 96.1555 9.612 95.9475 9.716C95.7742 9.82 95.6875 9.90667 95.6875 9.976C95.6875 10.1147 95.4968 10.2533 95.1155 10.392C94.7342 10.5307 94.5262 10.6173 94.4915 10.652C93.9715 10.7907 93.4862 10.9467 93.0355 11.12C92.6888 11.5013 92.3422 11.8827 91.9955 12.264C91.6835 12.6453 91.3888 13.0267 91.1115 13.408C91.0768 13.4427 91.0422 13.46 91.0075 13.46C90.6955 13.8067 90.4355 14.0667 90.2275 14.24C90.0195 14.4133 89.7942 14.5693 89.5515 14.708C89.4128 14.812 89.2742 14.8467 89.1355 14.812C88.9622 14.7427 88.9448 14.6733 89.0835 14.604C89.2568 14.5347 89.5342 14.292 89.9155 13.876C90.2968 13.46 90.5915 13.148 90.7995 12.94C90.9728 12.836 91.0248 12.836 90.9555 12.94C90.9208 13.044 90.9728 13.0267 91.1115 12.888L92.4115 11.224L92.4635 11.172C92.2902 11.068 92.2035 10.7907 92.2035 10.34C92.2035 9.99333 92.2728 9.716 92.4115 9.508C92.4115 9.47333 92.4462 9.456 92.5155 9.456L93.6075 9.144C93.7115 9.144 93.7808 9.12667 93.8155 9.092C93.8848 9.02267 93.9542 8.936 94.0235 8.832C94.1275 8.69333 94.2488 8.52 94.3875 8.312L95.0115 7.48L95.4275 6.908C95.4275 6.804 95.4968 6.68267 95.6355 6.544C95.8088 6.37067 95.9475 6.24933 96.0515 6.18C96.1902 5.972 96.2768 5.816 96.3115 5.712C96.3808 5.57333 96.4848 5.4 96.6235 5.192C96.6235 5.15733 96.6755 5.14 96.7795 5.14C96.8835 5.10533 96.9355 5.07067 96.9355 5.036C96.9702 4.68933 97.0222 4.53333 97.0915 4.568C97.1955 4.568 97.2475 4.516 97.2475 4.412C97.2475 4.308 97.3168 4.22133 97.4555 4.152L97.7155 3.84C97.7155 3.80533 97.7675 3.736 97.8715 3.632V3.58C97.8715 3.51067 97.8715 3.424 97.8715 3.32C97.8715 3.216 97.9062 3.112 97.9755 3.008C98.0448 2.93867 98.0968 2.904 98.1315 2.904C98.1662 2.904 98.1835 2.904 98.1835 2.904C98.1835 2.86933 98.1662 2.852 98.1315 2.852C98.1315 2.81733 98.1315 2.8 98.1315 2.8C98.1315 2.66133 98.2008 2.57467 98.3395 2.54C98.4782 2.50533 98.5475 2.45333 98.5475 2.384C98.6168 1.89867 99.0328 1.53467 99.7955 1.292C100.558 1.04933 101.234 0.928 101.824 0.928C102.413 0.928 102.708 1.01467 102.708 1.188C102.708 1.25733 102.604 1.37867 102.396 1.552C102.292 1.58667 102.118 1.74267 101.876 2.02C101.633 2.26267 101.408 2.55733 101.2 2.904L100.784 3.528C100.749 3.59733 100.697 3.684 100.628 3.788C100.593 3.85733 100.541 3.92667 100.472 3.996C100.229 4.412 99.8995 5.00133 99.4835 5.764C99.1022 6.492 98.6862 7.30667 98.2355 8.208L99.5875 8.052C99.6915 8.052 99.7262 8.06933 99.6915 8.104C99.6915 8.13867 99.7435 8.13867 99.8475 8.104C100.021 8.104 100.142 8.08667 100.212 8.052C100.281 7.98267 100.402 7.93067 100.576 7.896C100.853 7.86133 101.165 7.844 101.512 7.844C101.893 7.80933 102.188 7.792 102.396 7.792C102.534 7.792 102.708 7.792 102.916 7.792C103.124 7.792 103.28 7.80933 103.384 7.844C103.453 7.844 103.47 7.87867 103.436 7.948C103.436 7.98267 103.453 8 103.488 8C103.557 8 103.609 7.98267 103.644 7.948C103.713 7.91333 103.782 7.896 103.852 7.896C103.886 7.86133 103.938 7.86133 104.008 7.896C104.112 7.896 104.181 7.896 104.216 7.896L104.736 8.052C104.944 8.08667 105.048 8.208 105.048 8.416C105.082 8.624 104.996 8.69333 104.788 8.624C104.649 8.55467 104.528 8.52 104.424 8.52H103.124C102.881 8.52 102.656 8.52 102.448 8.52C102.24 8.52 102.032 8.53733 101.824 8.572C101.754 8.60667 101.72 8.572 101.72 8.468C101.754 8.364 101.737 8.312 101.668 8.312C101.633 8.312 101.581 8.364 101.512 8.468C101.442 8.53733 101.39 8.572 101.356 8.572L101.096 8.728C100.541 8.86667 99.9515 9.02267 99.3275 9.196C98.7035 9.33467 98.0968 9.49067 97.5075 9.664C96.9875 10.7387 96.4848 11.7613 95.9995 12.732C95.5488 13.668 95.2022 14.396 94.9595 14.916C94.8902 15.124 94.8555 15.2453 94.8555 15.28C94.8555 15.5573 95.0115 15.696 95.3235 15.696C95.5315 15.696 95.7395 15.644 95.9475 15.54L96.4675 15.332C97.2995 14.5693 98.1662 13.928 99.0675 13.408C99.1022 13.408 99.1195 13.408 99.1195 13.408C99.1542 13.3733 99.1888 13.356 99.2235 13.356C99.3275 13.356 99.3968 13.4253 99.4315 13.564C99.4662 13.668 99.4315 13.7547 99.3275 13.824C98.3222 14.3787 97.3862 15.0893 96.5195 15.956C96.4848 16.0253 96.4502 16.0947 96.4155 16.164C96.3808 16.2333 96.3288 16.3027 96.2595 16.372C96.1902 16.4413 96.0862 16.5627 95.9475 16.736C95.8435 16.9093 95.7915 17.0133 95.7915 17.048C95.7568 17.152 95.7048 17.1867 95.6355 17.152C95.6008 17.1173 95.4968 17.1693 95.3235 17.308C95.2888 17.3427 95.2542 17.412 95.2195 17.516C95.2195 17.62 95.2022 17.7067 95.1675 17.776C95.0982 17.88 95.0288 17.9667 94.9595 18.036C94.8902 18.0707 94.8555 18.1053 94.8555 18.14C94.8208 18.2787 94.7515 18.3653 94.6475 18.4C94.5782 18.4 94.5088 18.4347 94.4395 18.504C94.4048 18.504 94.3875 18.5213 94.3875 18.556C94.3875 18.868 94.3528 19.0067 94.2835 18.972C94.2142 18.9373 94.1622 18.972 94.1275 19.076C93.9888 19.2147 93.8848 19.284 93.8155 19.284C93.6075 19.3533 93.5208 19.4053 93.5555 19.44C93.6248 19.4747 93.6768 19.5093 93.7115 19.544C93.7808 19.544 93.7288 19.596 93.5555 19.7C93.4862 19.7347 93.4168 19.8387 93.3475 20.012C93.2782 20.1507 93.2088 20.2547 93.1395 20.324C93.0355 20.3933 92.9315 20.4453 92.8275 20.48C92.7235 20.5147 92.6368 20.584 92.5675 20.688C92.2555 21 91.9955 21.156 91.7875 21.156ZM94.7515 8.936C94.8902 8.90133 95.0115 8.86667 95.1155 8.832C95.2542 8.79733 95.3928 8.74533 95.5315 8.676L97.0915 8.416C97.5075 7.584 97.8715 6.83867 98.1835 6.18C98.4955 5.48667 98.7208 4.984 98.8595 4.672C98.8595 4.672 98.8248 4.65467 98.7555 4.62C98.7208 4.55067 98.7035 4.48133 98.7035 4.412C98.6342 4.37733 98.5475 4.32533 98.4435 4.256C98.3742 4.18667 98.3048 4.13467 98.2355 4.1L97.7675 4.568L97.1955 5.348C97.1955 5.38267 97.1435 5.41733 97.0395 5.452C96.9702 5.452 96.9355 5.46933 96.9355 5.504C96.9355 5.608 96.8835 5.712 96.7795 5.816C96.7102 5.92 96.6408 5.95467 96.5715 5.92L96.3635 6.44C96.3635 6.544 96.3115 6.63067 96.2075 6.7L95.8435 7.168C95.8435 7.20267 95.8262 7.23733 95.7915 7.272C95.7915 7.272 95.7915 7.30667 95.7915 7.376C95.7568 7.44533 95.7048 7.532 95.6355 7.636C95.5662 7.74 95.4795 7.844 95.3755 7.948C95.3408 7.948 95.3235 7.96533 95.3235 8C95.3235 8 95.3062 8 95.2715 8L95.1155 8.312C94.9768 8.38133 94.8902 8.416 94.8555 8.416L94.8035 8.52C94.8035 8.728 94.7862 8.86667 94.7515 8.936ZM104.609 21.104C103.742 21.104 102.979 20.8613 102.321 20.376C101.662 19.8907 101.333 19.0587 101.333 17.88C101.333 17.4293 101.385 16.9787 101.489 16.528C101.593 16.0427 101.714 15.5747 101.853 15.124C101.922 14.6733 102.026 14.2747 102.165 13.928C102.199 13.7893 102.217 13.72 102.217 13.72C102.251 13.6853 102.338 13.6333 102.477 13.564L102.893 12.94V12.732C102.858 12.732 102.841 12.732 102.841 12.732C102.841 12.6973 102.841 12.68 102.841 12.68C102.841 12.576 102.927 12.4547 103.101 12.316C103.274 12.1773 103.361 12.108 103.361 12.108C103.395 11.9347 103.447 11.848 103.517 11.848C103.586 11.848 103.673 11.796 103.777 11.692H104.349V11.588C104.349 11.4147 104.262 11.3453 104.089 11.38C103.95 11.38 103.881 11.3627 103.881 11.328C103.881 11.2933 103.933 11.224 104.037 11.12C104.175 10.9813 104.262 10.8947 104.297 10.86C104.401 10.7213 104.487 10.6 104.557 10.496C104.626 10.3573 104.73 10.2533 104.869 10.184C105.493 9.42133 105.874 8.936 106.013 8.728C106.186 8.52 106.359 8.364 106.533 8.26C106.602 8.26 106.654 8.29467 106.689 8.364C106.758 8.39867 106.758 8.45067 106.689 8.52C106.758 8.624 106.81 8.64133 106.845 8.572C106.914 8.50267 106.949 8.468 106.949 8.468L107.157 8.364C107.087 8.29467 107.053 8.208 107.053 8.104C107.053 7.93067 107.087 7.792 107.157 7.688C107.226 7.54933 107.347 7.41067 107.521 7.272C107.729 7.13333 107.833 7.04667 107.833 7.012C108.041 6.94267 108.197 6.87333 108.301 6.804C108.439 6.73467 108.578 6.7 108.717 6.7C108.959 6.7 109.202 6.78667 109.445 6.96C110.103 7.30667 110.658 7.65333 111.109 8C111.559 8.34667 111.785 8.832 111.785 9.456C111.785 10.1147 111.507 10.6867 110.953 11.172C110.433 11.6227 109.791 12.004 109.029 12.316C108.266 12.628 107.503 12.888 106.741 13.096C106.013 13.2693 105.441 13.408 105.025 13.512C104.782 13.5467 104.661 13.6507 104.661 13.824C104.695 13.9627 104.678 14.1187 104.609 14.292L104.245 14.864L103.933 15.592L103.673 16.06C103.43 16.268 103.343 16.424 103.413 16.528C103.482 16.632 103.603 16.6147 103.777 16.476C103.811 16.5107 103.829 16.5627 103.829 16.632C103.829 16.7707 103.794 16.944 103.725 17.152C103.655 17.3253 103.603 17.464 103.569 17.568C103.534 17.7067 103.534 17.776 103.569 17.776C103.638 17.7413 103.673 17.8107 103.673 17.984L103.725 18.712C103.933 19.3707 104.401 19.752 105.129 19.856C105.198 19.856 105.267 19.8733 105.337 19.908C105.441 19.908 105.527 19.908 105.597 19.908C106.221 19.908 106.55 19.856 106.585 19.752C106.654 19.648 106.741 19.5787 106.845 19.544C107.157 19.4747 107.417 19.4053 107.625 19.336C107.867 19.2667 108.11 19.1627 108.353 19.024C108.769 18.8507 109.167 18.6253 109.549 18.348C109.93 18.0707 110.329 17.7933 110.745 17.516L111.265 17.152C111.299 17.0827 111.299 17.0307 111.265 16.996C111.23 16.9613 111.23 16.9267 111.265 16.892C111.334 16.8573 111.386 16.8573 111.421 16.892C111.49 16.892 111.542 16.8747 111.577 16.84C111.646 16.8053 111.715 16.7533 111.785 16.684C111.854 16.58 111.923 16.4933 111.993 16.424C112.062 16.3547 112.097 16.2853 112.097 16.216C112.131 16.1467 112.183 16.0773 112.253 16.008C112.53 15.7307 112.807 15.436 113.085 15.124C113.397 14.812 113.657 14.5347 113.865 14.292C114.107 13.9453 114.298 13.772 114.437 13.772C114.506 13.772 114.541 13.8067 114.541 13.876C114.541 14.0493 114.419 14.3093 114.177 14.656C113.587 15.5227 112.911 16.372 112.149 17.204C111.386 18.0013 110.554 18.7293 109.653 19.388C108.994 19.8387 108.214 20.2373 107.313 20.584C106.411 20.9307 105.51 21.104 104.609 21.104ZM105.389 12.732C105.909 12.6973 106.585 12.5587 107.417 12.316C108.249 12.0387 108.942 11.6747 109.497 11.224C110.086 10.7387 110.381 10.2013 110.381 9.612C110.381 9.05733 110.086 8.52 109.497 8C109.011 8.34667 108.474 8.84933 107.885 9.508C107.33 10.132 106.827 10.756 106.377 11.38C105.926 11.9693 105.597 12.42 105.389 12.732ZM115.096 21.156C114.888 21.156 114.784 21.0347 114.784 20.792C114.784 20.6187 114.836 20.4107 114.94 20.168C115.217 19.5787 115.529 18.7467 115.876 17.672C116.257 16.5973 116.725 15.6787 117.28 14.916L119.88 9.56C119.672 9.56 119.464 9.612 119.256 9.716C119.083 9.82 118.996 9.90667 118.996 9.976C118.996 10.1147 118.805 10.2533 118.424 10.392C118.043 10.5307 117.835 10.6173 117.8 10.652C117.28 10.7907 116.795 10.9467 116.344 11.12C115.997 11.5013 115.651 11.8827 115.304 12.264C114.992 12.6453 114.697 13.0267 114.42 13.408C114.385 13.4427 114.351 13.46 114.316 13.46C114.004 13.8067 113.744 14.0667 113.536 14.24C113.328 14.4133 113.103 14.5693 112.86 14.708C112.721 14.812 112.583 14.8467 112.444 14.812C112.271 14.7427 112.253 14.6733 112.392 14.604C112.565 14.5347 112.843 14.292 113.224 13.876C113.605 13.46 113.9 13.148 114.108 12.94C114.281 12.836 114.333 12.836 114.264 12.94C114.229 13.044 114.281 13.0267 114.42 12.888L115.72 11.224L115.772 11.172C115.599 11.068 115.512 10.7907 115.512 10.34C115.512 9.99333 115.581 9.716 115.72 9.508C115.72 9.47333 115.755 9.456 115.824 9.456L116.916 9.144C117.02 9.144 117.089 9.12667 117.124 9.092C117.193 9.02267 117.263 8.936 117.332 8.832C117.436 8.69333 117.557 8.52 117.696 8.312L118.32 7.48L118.736 6.908C118.736 6.804 118.805 6.68267 118.944 6.544C119.117 6.37067 119.256 6.24933 119.36 6.18C119.499 5.972 119.585 5.816 119.62 5.712C119.689 5.57333 119.793 5.4 119.932 5.192C119.932 5.15733 119.984 5.14 120.088 5.14C120.192 5.10533 120.244 5.07067 120.244 5.036C120.279 4.68933 120.331 4.53333 120.4 4.568C120.504 4.568 120.556 4.516 120.556 4.412C120.556 4.308 120.625 4.22133 120.764 4.152L121.024 3.84C121.024 3.80533 121.076 3.736 121.18 3.632V3.58C121.18 3.51067 121.18 3.424 121.18 3.32C121.18 3.216 121.215 3.112 121.284 3.008C121.353 2.93867 121.405 2.904 121.44 2.904C121.475 2.904 121.492 2.904 121.492 2.904C121.492 2.86933 121.475 2.852 121.44 2.852C121.44 2.81733 121.44 2.8 121.44 2.8C121.44 2.66133 121.509 2.57467 121.648 2.54C121.787 2.50533 121.856 2.45333 121.856 2.384C121.925 1.89867 122.341 1.53467 123.104 1.292C123.867 1.04933 124.543 0.928 125.132 0.928C125.721 0.928 126.016 1.01467 126.016 1.188C126.016 1.25733 125.912 1.37867 125.704 1.552C125.6 1.58667 125.427 1.74267 125.184 2.02C124.941 2.26267 124.716 2.55733 124.508 2.904L124.092 3.528C124.057 3.59733 124.005 3.684 123.936 3.788C123.901 3.85733 123.849 3.92667 123.78 3.996C123.537 4.412 123.208 5.00133 122.792 5.764C122.411 6.492 121.995 7.30667 121.544 8.208L122.896 8.052C123 8.052 123.035 8.06933 123 8.104C123 8.13867 123.052 8.13867 123.156 8.104C123.329 8.104 123.451 8.08667 123.52 8.052C123.589 7.98267 123.711 7.93067 123.884 7.896C124.161 7.86133 124.473 7.844 124.82 7.844C125.201 7.80933 125.496 7.792 125.704 7.792C125.843 7.792 126.016 7.792 126.224 7.792C126.432 7.792 126.588 7.80933 126.692 7.844C126.761 7.844 126.779 7.87867 126.744 7.948C126.744 7.98267 126.761 8 126.796 8C126.865 8 126.917 7.98267 126.952 7.948C127.021 7.91333 127.091 7.896 127.16 7.896C127.195 7.86133 127.247 7.86133 127.316 7.896C127.42 7.896 127.489 7.896 127.524 7.896L128.044 8.052C128.252 8.08667 128.356 8.208 128.356 8.416C128.391 8.624 128.304 8.69333 128.096 8.624C127.957 8.55467 127.836 8.52 127.732 8.52H126.432C126.189 8.52 125.964 8.52 125.756 8.52C125.548 8.52 125.34 8.53733 125.132 8.572C125.063 8.60667 125.028 8.572 125.028 8.468C125.063 8.364 125.045 8.312 124.976 8.312C124.941 8.312 124.889 8.364 124.82 8.468C124.751 8.53733 124.699 8.572 124.664 8.572L124.404 8.728C123.849 8.86667 123.26 9.02267 122.636 9.196C122.012 9.33467 121.405 9.49067 120.816 9.664C120.296 10.7387 119.793 11.7613 119.308 12.732C118.857 13.668 118.511 14.396 118.268 14.916C118.199 15.124 118.164 15.2453 118.164 15.28C118.164 15.5573 118.32 15.696 118.632 15.696C118.84 15.696 119.048 15.644 119.256 15.54L119.776 15.332C120.608 14.5693 121.475 13.928 122.376 13.408C122.411 13.408 122.428 13.408 122.428 13.408C122.463 13.3733 122.497 13.356 122.532 13.356C122.636 13.356 122.705 13.4253 122.74 13.564C122.775 13.668 122.74 13.7547 122.636 13.824C121.631 14.3787 120.695 15.0893 119.828 15.956C119.793 16.0253 119.759 16.0947 119.724 16.164C119.689 16.2333 119.637 16.3027 119.568 16.372C119.499 16.4413 119.395 16.5627 119.256 16.736C119.152 16.9093 119.1 17.0133 119.1 17.048C119.065 17.152 119.013 17.1867 118.944 17.152C118.909 17.1173 118.805 17.1693 118.632 17.308C118.597 17.3427 118.563 17.412 118.528 17.516C118.528 17.62 118.511 17.7067 118.476 17.776C118.407 17.88 118.337 17.9667 118.268 18.036C118.199 18.0707 118.164 18.1053 118.164 18.14C118.129 18.2787 118.06 18.3653 117.956 18.4C117.887 18.4 117.817 18.4347 117.748 18.504C117.713 18.504 117.696 18.5213 117.696 18.556C117.696 18.868 117.661 19.0067 117.592 18.972C117.523 18.9373 117.471 18.972 117.436 19.076C117.297 19.2147 117.193 19.284 117.124 19.284C116.916 19.3533 116.829 19.4053 116.864 19.44C116.933 19.4747 116.985 19.5093 117.02 19.544C117.089 19.544 117.037 19.596 116.864 19.7C116.795 19.7347 116.725 19.8387 116.656 20.012C116.587 20.1507 116.517 20.2547 116.448 20.324C116.344 20.3933 116.24 20.4453 116.136 20.48C116.032 20.5147 115.945 20.584 115.876 20.688C115.564 21 115.304 21.156 115.096 21.156ZM118.06 8.936C118.199 8.90133 118.32 8.86667 118.424 8.832C118.563 8.79733 118.701 8.74533 118.84 8.676L120.4 8.416C120.816 7.584 121.18 6.83867 121.492 6.18C121.804 5.48667 122.029 4.984 122.168 4.672C122.168 4.672 122.133 4.65467 122.064 4.62C122.029 4.55067 122.012 4.48133 122.012 4.412C121.943 4.37733 121.856 4.32533 121.752 4.256C121.683 4.18667 121.613 4.13467 121.544 4.1L121.076 4.568L120.504 5.348C120.504 5.38267 120.452 5.41733 120.348 5.452C120.279 5.452 120.244 5.46933 120.244 5.504C120.244 5.608 120.192 5.712 120.088 5.816C120.019 5.92 119.949 5.95467 119.88 5.92L119.672 6.44C119.672 6.544 119.62 6.63067 119.516 6.7L119.152 7.168C119.152 7.20267 119.135 7.23733 119.1 7.272C119.1 7.272 119.1 7.30667 119.1 7.376C119.065 7.44533 119.013 7.532 118.944 7.636C118.875 7.74 118.788 7.844 118.684 7.948C118.649 7.948 118.632 7.96533 118.632 8C118.632 8 118.615 8 118.58 8L118.424 8.312C118.285 8.38133 118.199 8.416 118.164 8.416L118.112 8.52C118.112 8.728 118.095 8.86667 118.06 8.936ZM135.613 20.948C135.093 20.948 134.712 20.7227 134.469 20.272C134.435 20.168 134.348 20.012 134.209 19.804C134.105 19.596 134.019 19.4227 133.949 19.284V19.232C133.949 19.1627 133.967 19.0933 134.001 19.024C134.036 18.9547 134.053 18.8853 134.053 18.816C134.053 18.6773 134.019 18.556 133.949 18.452C133.88 18.3133 133.845 18.1747 133.845 18.036C133.845 17.5507 133.984 16.9787 134.261 16.32C134.573 15.6613 134.816 15.0893 134.989 14.604C135.059 14.3267 135.232 13.9973 135.509 13.616C135.544 13.5813 135.579 13.564 135.613 13.564C135.683 13.564 135.735 13.5467 135.769 13.512C135.839 13.408 135.873 13.304 135.873 13.2C135.908 13.0613 135.943 12.94 135.977 12.836C136.012 12.7667 136.081 12.732 136.185 12.732C136.289 12.732 136.359 12.6973 136.393 12.628C136.428 12.5587 136.376 12.524 136.237 12.524C136.099 12.524 136.047 12.4893 136.081 12.42C136.324 11.9693 136.584 11.5013 136.861 11.016C137.173 10.5307 137.381 10.2187 137.485 10.08C137.451 10.1147 137.433 10.08 137.433 9.976C137.433 9.83733 137.399 9.78533 137.329 9.82C137.295 9.85467 137.208 9.94133 137.069 10.08C136.931 10.2187 136.827 10.3227 136.757 10.392C136.584 10.5307 136.376 10.7213 136.133 10.964C135.891 11.2067 135.735 11.3627 135.665 11.432C135.561 11.4667 135.423 11.6227 135.249 11.9C135.076 12.1427 134.955 12.2987 134.885 12.368C134.747 12.5067 134.608 12.576 134.469 12.576C134.4 12.576 134.348 12.5413 134.313 12.472C134.313 12.368 134.348 12.264 134.417 12.16C134.487 12.0907 134.556 12.004 134.625 11.9C134.695 11.7613 134.747 11.6573 134.781 11.588C134.816 11.5533 134.868 11.5013 134.937 11.432C135.007 11.328 135.041 11.2587 135.041 11.224L135.457 10.756C135.492 10.7213 135.561 10.7213 135.665 10.756C135.769 10.756 135.839 10.7387 135.873 10.704C135.908 10.6347 135.856 10.6 135.717 10.6C135.613 10.5653 135.579 10.5307 135.613 10.496C135.925 9.94133 136.324 9.404 136.809 8.884C137.295 8.364 137.624 8 137.797 7.792C137.971 7.584 138.196 7.428 138.473 7.324C138.785 7.18533 139.08 7.116 139.357 7.116C139.6 7.116 139.773 7.13333 139.877 7.168C140.085 7.23733 140.328 7.34133 140.605 7.48C140.917 7.584 141.108 7.74 141.177 7.948C141.281 8.156 141.212 8.48533 140.969 8.936C140.727 9.38667 140.432 9.83733 140.085 10.288C139.773 10.704 139.513 10.9813 139.305 11.12C139.271 11.1547 139.184 11.172 139.045 11.172C138.907 11.172 138.733 11.172 138.525 11.172C138.317 11.1373 138.196 11.1547 138.161 11.224C138.057 11.3627 137.936 11.5013 137.797 11.64C137.659 11.744 137.555 11.8827 137.485 12.056C137.451 12.264 137.399 12.4373 137.329 12.576C137.295 12.7147 137.191 12.9227 137.017 13.2C136.983 13.2693 136.913 13.3907 136.809 13.564C136.705 13.7027 136.636 13.8067 136.601 13.876C136.359 14.6387 136.133 15.3667 135.925 16.06C135.752 16.7187 135.665 17.2733 135.665 17.724C135.665 18.1747 135.804 18.5733 136.081 18.92C136.359 19.232 136.723 19.388 137.173 19.388C137.693 19.388 138.248 19.2147 138.837 18.868C139.184 18.7293 139.565 18.4693 139.981 18.088C140.051 18.0187 140.103 17.9667 140.137 17.932C140.207 17.8627 140.276 17.8107 140.345 17.776H140.501C140.675 17.776 140.761 17.8453 140.761 17.984C140.761 18.1227 140.64 18.296 140.397 18.504C140.259 18.608 140.12 18.6947 139.981 18.764C139.877 18.8333 139.756 18.92 139.617 19.024C139.444 19.128 139.253 19.3013 139.045 19.544C138.837 19.752 138.595 19.856 138.317 19.856H138.265C138.161 19.856 138.075 19.8387 138.005 19.804C137.936 19.7347 137.867 19.7173 137.797 19.752C137.693 19.7867 137.693 19.856 137.797 19.96C137.936 20.0293 137.953 20.0987 137.849 20.168L137.433 20.376C136.671 20.7573 136.064 20.948 135.613 20.948ZM127.189 20.636C126.981 20.636 126.721 20.4107 126.409 19.96C126.201 19.6827 126.097 19.2493 126.097 18.66C126.097 18.0707 126.201 17.4293 126.409 16.736C126.652 16.0427 126.947 15.436 127.293 14.916C127.675 14.1533 127.935 13.5813 128.073 13.2C128.212 12.8187 128.351 12.5067 128.489 12.264C128.489 12.2293 128.455 12.1947 128.385 12.16C128.316 12.1253 128.281 12.056 128.281 11.952C128.073 11.8133 127.848 11.6227 127.605 11.38C127.397 11.1027 127.38 10.8427 127.553 10.6C127.623 10.5307 127.675 10.496 127.709 10.496C127.744 10.4613 127.761 10.444 127.761 10.444V10.34C127.761 10.2013 127.813 10.1147 127.917 10.08C128.056 10.0453 128.125 9.99333 128.125 9.924C128.195 9.43867 128.593 9.07467 129.321 8.832C130.084 8.58933 130.76 8.468 131.349 8.468C132.008 8.468 132.337 8.572 132.337 8.78C132.337 8.884 132.216 9.00533 131.973 9.144C131.869 9.17867 131.696 9.31733 131.453 9.56C131.211 9.80267 130.985 10.0973 130.777 10.444L130.413 11.068L130.049 11.536C129.841 11.9173 129.616 12.316 129.373 12.732C129.165 13.1133 128.819 13.8413 128.333 14.916C128.195 15.2627 128.073 15.592 127.969 15.904C127.9 16.216 127.9 16.4587 127.969 16.632C128.004 16.6667 127.883 16.788 127.605 16.996C127.363 17.204 127.259 17.3253 127.293 17.36C127.328 17.36 127.38 17.3773 127.449 17.412C127.519 17.412 127.605 17.412 127.709 17.412C127.917 17.412 128.125 17.3773 128.333 17.308C128.437 17.2733 128.524 17.204 128.593 17.1C128.663 16.9613 128.715 16.892 128.749 16.892C128.957 16.892 129.183 16.84 129.425 16.736C129.807 16.5627 130.275 16.216 130.829 15.696C130.899 15.6267 131.037 15.5747 131.245 15.54C131.453 15.4707 131.627 15.3493 131.765 15.176C132.181 14.7947 132.424 14.5693 132.493 14.5C132.563 14.396 132.771 14.1707 133.117 13.824C133.117 13.7893 133.187 13.6333 133.325 13.356C133.464 13.044 133.533 12.8707 133.533 12.836C133.603 12.6627 133.672 12.576 133.741 12.576C133.88 12.576 133.984 12.6973 134.053 12.94C134.157 13.1827 134.157 13.3907 134.053 13.564C134.019 13.5987 133.932 13.668 133.793 13.772C133.689 13.876 133.603 13.9627 133.533 14.032L132.857 14.708L131.453 15.956C131.419 15.9907 131.384 16.0427 131.349 16.112C131.315 16.1813 131.263 16.2507 131.193 16.32L130.725 17.048C130.691 17.1173 130.621 17.1173 130.517 17.048C130.413 16.944 130.275 16.9613 130.101 17.1C130.067 17.1347 130.032 17.204 129.997 17.308C129.997 17.412 129.98 17.4987 129.945 17.568C129.911 17.672 129.911 17.7413 129.945 17.776C129.98 17.776 129.997 17.7933 129.997 17.828C129.963 17.932 129.893 18.0013 129.789 18.036C129.72 18.0707 129.651 18.1227 129.581 18.192C129.547 18.2267 129.547 18.2787 129.581 18.348C129.616 18.4173 129.599 18.4867 129.529 18.556C129.495 18.66 129.46 18.6947 129.425 18.66C129.391 18.6253 129.339 18.6427 129.269 18.712C129.235 18.7467 129.183 18.7987 129.113 18.868C129.079 18.9027 129.027 18.9373 128.957 18.972C128.68 19.076 128.524 19.2147 128.489 19.388C128.455 19.5613 128.333 19.752 128.125 19.96C127.675 20.4107 127.363 20.636 127.189 20.636ZM143.535 20.896C143.188 20.896 142.824 20.8267 142.443 20.688C142.061 20.5147 141.923 20.324 142.027 20.116C142.165 19.8387 142.321 19.5613 142.495 19.284C142.703 18.972 142.893 18.6427 143.067 18.296L143.639 17.204C143.708 17.0307 143.777 16.9093 143.847 16.84C143.951 16.736 144.037 16.6147 144.107 16.476C144.141 16.4413 144.159 16.3547 144.159 16.216C144.159 16.0427 144.228 15.852 144.367 15.644C144.54 15.4013 144.661 15.176 144.731 14.968C144.765 14.9333 144.8 15.0373 144.835 15.28C144.869 15.5227 144.956 15.5053 145.095 15.228C145.129 15.1933 145.112 15.1413 145.043 15.072C145.008 15.0027 144.991 14.9333 144.991 14.864C144.991 14.7947 145.008 14.76 145.043 14.76C145.112 14.7253 145.147 14.6907 145.147 14.656C145.181 14.552 145.147 14.5173 145.043 14.552C144.973 14.552 144.939 14.5347 144.939 14.5C145.008 14.396 145.077 14.3267 145.147 14.292C145.251 14.2573 145.32 14.2053 145.355 14.136C145.355 14.0667 145.32 14.032 145.251 14.032C145.216 13.9973 145.216 13.9627 145.251 13.928C145.424 13.4427 145.615 12.8707 145.823 12.212C146.031 11.5533 146.187 10.9467 146.291 10.392C146.291 10.392 146.256 10.3747 146.187 10.34C146.117 10.2707 146.083 10.2013 146.083 10.132L145.719 9.872C145.303 10.2533 144.852 10.5827 144.367 10.86C144.332 10.8947 144.263 10.912 144.159 10.912C144.02 10.912 143.933 10.8427 143.899 10.704C143.864 10.5653 143.916 10.444 144.055 10.34C144.228 10.236 144.367 10.1667 144.471 10.132C144.575 10.0627 144.696 9.95867 144.835 9.82C144.904 9.75067 144.939 9.68133 144.939 9.612C144.973 9.54267 145.008 9.47333 145.043 9.404L145.251 9.144C145.251 8.97067 145.285 8.832 145.355 8.728C145.424 8.65867 145.476 8.624 145.511 8.624C145.545 8.624 145.563 8.624 145.563 8.624V8.52C145.563 8.38133 145.615 8.29467 145.719 8.26C145.857 8.22533 145.927 8.17333 145.927 8.104C145.996 7.61867 146.412 7.25467 147.175 7.012C147.937 6.76933 148.613 6.648 149.203 6.648C149.792 6.648 150.087 6.73467 150.087 6.908C150.087 7.012 149.983 7.13333 149.775 7.272C149.671 7.34133 149.497 7.49733 149.255 7.74C149.012 7.98267 148.787 8.27733 148.579 8.624L148.215 9.248L147.851 9.716C147.608 10.2707 147.261 11.12 146.811 12.264C146.36 13.408 145.892 14.8467 145.407 16.58C145.511 16.4413 145.753 16.1467 146.135 15.696C146.516 15.2453 146.967 14.7253 147.487 14.136C148.007 13.5467 148.509 12.992 148.995 12.472C149.48 11.9173 149.879 11.484 150.191 11.172L150.451 11.016C150.52 10.9467 150.589 10.86 150.659 10.756C150.763 10.6173 150.849 10.5133 150.919 10.444C150.953 10.4093 150.971 10.4787 150.971 10.652C151.005 10.7907 151.04 10.8427 151.075 10.808C151.213 10.704 151.283 10.548 151.283 10.34C151.317 10.132 151.404 9.99333 151.543 9.924C151.924 9.612 152.444 9.17867 153.103 8.624C153.796 8.03467 154.507 7.688 155.235 7.584C155.304 7.51467 155.408 7.49733 155.547 7.532C155.72 7.532 155.841 7.51467 155.911 7.48C155.98 7.48 156.032 7.46267 156.067 7.428C156.101 7.39333 156.188 7.376 156.327 7.376C156.396 7.376 156.535 7.428 156.743 7.532C156.985 7.636 157.124 7.77467 157.159 7.948C157.367 8.08667 157.471 8.29467 157.471 8.572C157.471 9.05733 157.211 9.42133 156.691 9.664C156.517 9.83733 156.327 10.0107 156.119 10.184C155.911 10.3227 155.703 10.4787 155.495 10.652C155.425 10.7213 155.373 10.756 155.339 10.756C155.096 10.964 154.888 11.1893 154.715 11.432C154.541 11.6747 154.455 11.9867 154.455 12.368C154.455 12.4027 154.489 12.4547 154.559 12.524C154.628 12.5587 154.645 12.5933 154.611 12.628C154.715 12.732 154.871 12.8013 155.079 12.836C155.287 12.836 155.495 12.836 155.703 12.836C156.049 12.836 156.569 12.6973 157.263 12.42H157.367C157.401 12.42 157.419 12.4373 157.419 12.472C157.419 12.5413 157.349 12.6627 157.211 12.836C157.072 12.9747 156.916 13.0787 156.743 13.148C156.361 13.2867 155.963 13.3733 155.547 13.408C155.131 13.408 154.836 13.408 154.663 13.408C154.039 13.408 153.64 13.2867 153.467 13.044C153.328 12.8013 153.189 12.5067 153.051 12.16V11.9L153.311 11.64C153.276 11.536 153.224 11.432 153.155 11.328C153.085 11.224 153.051 11.1027 153.051 10.964C153.051 10.6173 153.189 10.2187 153.467 9.768C153.085 9.872 152.6 10.1667 152.011 10.652C151.456 11.1027 150.884 11.64 150.295 12.264C149.705 12.8533 149.168 13.4427 148.683 14.032C148.197 14.5867 147.816 15.0373 147.539 15.384C147.435 15.5227 147.313 15.6093 147.175 15.644C147.071 15.644 146.984 15.696 146.915 15.8C146.88 15.8347 146.915 15.852 147.019 15.852C147.157 15.852 147.209 15.8693 147.175 15.904C146.724 16.5973 146.239 17.36 145.719 18.192C145.233 19.024 144.748 19.8387 144.263 20.636C144.159 20.8093 143.916 20.896 143.535 20.896Z" fill="black"/>
</svg>
