<svg width="151" height="31" viewBox="0 0 151 31" fill="none" xmlns="http://www.w3.org/2000/svg">
<path d="M2.40625 12.3438C2.51042 12.2188 2.57292 11.9896 2.59375 11.6562C2.63542 11.3021 2.71875 10.9062 2.84375 10.4688C2.98958 10.0312 3.22917 9.57292 3.5625 9.09375C3.89583 8.61458 4.4375 8.16667 5.1875 7.75C5.91667 7.33333 6.625 7.08333 7.3125 7C8 6.91667 8.65625 6.94792 9.28125 7.09375C9.90625 7.23958 10.4896 7.46875 11.0312 7.78125C11.5938 8.09375 12.1042 8.4375 12.5625 8.8125C12.875 9.0625 13.125 9.42708 13.3125 9.90625C13.5 10.3646 13.6458 10.8854 13.75 11.4688C13.8542 12.0521 13.9271 12.6667 13.9688 13.3125C14.0312 13.9375 14.0729 14.5521 14.0938 15.1562C14.1146 15.7396 14.125 16.2812 14.125 16.7812C14.1458 17.2604 14.1875 17.6562 14.25 17.9688C14.3333 18.4271 14.4792 18.8229 14.6875 19.1562C14.8958 19.4688 15.125 19.7396 15.375 19.9688C15.625 20.1771 15.875 20.3438 16.125 20.4688C16.375 20.5938 16.5938 20.6875 16.7812 20.75C16.9062 20.8125 17.0208 20.8542 17.125 20.875C17.3333 20.9583 17.4792 20.9583 17.5625 20.875C17.4375 21.1667 17.3229 21.4167 17.2188 21.625C17.1146 21.8333 17.0312 22.0104 16.9688 22.1562C16.8854 22.3229 16.8125 22.4583 16.75 22.5625C16.6875 22.6875 16.6146 22.8021 16.5312 22.9062C16.4688 23.0104 16.3854 23.125 16.2812 23.25C16.1771 23.375 16.0729 23.5104 15.9688 23.6562C15.6979 23.5521 15.4375 23.4271 15.1875 23.2812C14.9583 23.1354 14.75 23 14.5625 22.875C14.3333 22.7292 14.125 22.5833 13.9375 22.4375C13.75 22.2917 13.5729 22.125 13.4062 21.9375C13.2604 21.7708 13.1042 21.5938 12.9375 21.4062C12.7917 21.2188 12.6667 21.0104 12.5625 20.7812C12.4375 21.0521 12.1354 21.4375 11.6562 21.9375C11.1979 22.4375 10.5938 22.8958 9.84375 23.3125C9.09375 23.7083 8.21875 23.9896 7.21875 24.1562C6.23958 24.3229 5.15625 24.2083 3.96875 23.8125C3.44792 23.6458 2.95833 23.4062 2.5 23.0938C2.04167 22.7604 1.64583 22.3646 1.3125 21.9062C1 21.4479 0.770833 20.9271 0.625 20.3438C0.5 19.7396 0.510417 19.0729 0.65625 18.3438C0.802083 17.6146 1.0625 17 1.4375 16.5C1.8125 16 2.26042 15.5938 2.78125 15.2812C3.30208 14.9688 3.88542 14.7292 4.53125 14.5625C5.17708 14.3958 5.84375 14.2812 6.53125 14.2188C7.07292 14.1979 7.61458 14.2292 8.15625 14.3125C8.61458 14.3958 9.09375 14.5521 9.59375 14.7812C10.0938 14.9896 10.5208 15.3125 10.875 15.75C10.8542 14.6458 10.8125 13.7708 10.75 13.125C10.7083 12.4583 10.6667 11.9479 10.625 11.5938C10.5417 11.1771 10.4688 10.8854 10.4062 10.7188C10.3021 10.5729 10.1875 10.4062 10.0625 10.2188C9.95833 10.0312 9.82292 9.86458 9.65625 9.71875C9.48958 9.55208 9.28125 9.41667 9.03125 9.3125C8.78125 9.20833 8.48958 9.16667 8.15625 9.1875C7.80208 9.20833 7.52083 9.30208 7.3125 9.46875C7.10417 9.63542 6.9375 9.83333 6.8125 10.0625C6.70833 10.2708 6.64583 10.5 6.625 10.75C6.60417 11 6.61458 11.2188 6.65625 11.4062C6.69792 11.5312 6.76042 11.6667 6.84375 11.8125C6.92708 11.9375 7.04167 12.0729 7.1875 12.2188C7.33333 12.3646 7.53125 12.4896 7.78125 12.5938C7.30208 12.6562 6.875 12.7083 6.5 12.75C6.125 12.7708 5.80208 12.8021 5.53125 12.8438C5.21875 12.8854 4.94792 12.9167 4.71875 12.9375C4.48958 12.9583 4.21875 13 3.90625 13.0625C3.63542 13.1042 3.30208 13.1562 2.90625 13.2188C2.51042 13.2812 2.05208 13.3646 1.53125 13.4688C1.65625 13.3229 1.77083 13.1875 1.875 13.0625C1.97917 12.9167 2.07292 12.7917 2.15625 12.6875C2.23958 12.5625 2.32292 12.4479 2.40625 12.3438ZM7.09375 16.0625C6.71875 16.0833 6.34375 16.1771 5.96875 16.3438C5.59375 16.4896 5.26042 16.7083 4.96875 17C4.67708 17.2708 4.42708 17.5938 4.21875 17.9688C4.03125 18.3229 3.9375 18.7188 3.9375 19.1562C3.9375 19.5938 4.04167 19.9792 4.25 20.3125C4.47917 20.625 4.77083 20.8854 5.125 21.0938C5.5 21.3021 5.89583 21.4271 6.3125 21.4688C6.75 21.5104 7.17708 21.4688 7.59375 21.3438C7.98958 21.1979 8.36458 20.9688 8.71875 20.6562C9.07292 20.3229 9.375 19.9688 9.625 19.5938C9.875 19.1979 10.0521 18.8125 10.1562 18.4375C10.2604 18.0417 10.2708 17.7188 10.1875 17.4688C10.0208 16.9271 9.64583 16.5521 9.0625 16.3438C8.47917 16.1146 7.82292 16.0208 7.09375 16.0625ZM32.5938 1.0625C32.9896 1.08333 33.4167 1.09375 33.875 1.09375C34.2708 1.09375 34.7188 1.10417 35.2188 1.125C35.7396 1.125 36.2812 1.10417 36.8438 1.0625C36.3438 1.29167 35.9062 1.625 35.5312 2.0625C35.1562 2.5 34.8542 2.9375 34.625 3.375C34.3333 3.89583 34.0938 4.4375 33.9062 5C33.8021 5.33333 33.7188 5.92708 33.6562 6.78125C33.5938 7.61458 33.5417 8.59375 33.5 9.71875C33.4792 10.8438 33.4688 12.0312 33.4688 13.2812C33.4688 14.5312 33.4792 15.7292 33.5 16.875C33.5208 18 33.5521 19 33.5938 19.875C33.6354 20.75 33.6875 21.3646 33.75 21.7188C33.8333 22.1354 33.9375 22.5312 34.0625 22.9062C34.1667 23.2396 34.3021 23.5833 34.4688 23.9375C34.6354 24.2708 34.8438 24.5417 35.0938 24.75L31.9062 26.1875C31.7396 25.9583 31.6042 25.7188 31.5 25.4688C31.3958 25.2396 31.3125 25.0312 31.25 24.8438C31.1667 24.6146 31.1146 24.4062 31.0938 24.2188C31.0521 23.9688 31.0104 23.6979 30.9688 23.4062C30.9271 23.0938 30.875 22.8021 30.8125 22.5312C30.7708 22.2396 30.7396 22 30.7188 21.8125C30.6979 21.625 30.6979 21.5104 30.7188 21.4688C30.7396 21.4271 30.6146 21.6146 30.3438 22.0312C30.0729 22.4271 29.6667 22.8958 29.125 23.4375C28.6042 23.9583 27.9583 24.4688 27.1875 24.9688C26.4167 25.4479 25.5521 25.75 24.5938 25.875C23.6146 26 22.7083 25.8125 21.875 25.3125C21.0625 24.8125 20.3646 24.1146 19.7812 23.2188C19.1979 22.3021 18.75 21.25 18.4375 20.0625C18.1458 18.8542 18.0312 17.625 18.0938 16.375C18.1354 15.5417 18.3229 14.8021 18.6562 14.1562C18.9896 13.4896 19.4062 12.9167 19.9062 12.4375C20.4271 11.9375 20.9896 11.5208 21.5938 11.1875C22.2188 10.8333 22.8229 10.5417 23.4062 10.3125C24.0104 10.0833 24.5729 9.91667 25.0938 9.8125C25.6146 9.70833 26.0312 9.63542 26.3438 9.59375C26.7188 9.57292 27.1458 9.63542 27.625 9.78125C28.0417 9.90625 28.5208 10.1146 29.0625 10.4062C29.625 10.6979 30.25 11.1354 30.9375 11.7188C30.8125 9.63542 30.6979 7.96875 30.5938 6.71875C30.4896 5.44792 30.3854 4.47917 30.2812 3.8125C30.1771 3.02083 30.0833 2.47917 30 2.1875C29.8958 1.97917 29.7604 1.77083 29.5938 1.5625C29.4479 1.39583 29.2604 1.22917 29.0312 1.0625C28.8229 0.875 28.5729 0.729167 28.2812 0.625C28.8229 0.729167 29.3438 0.802083 29.8438 0.84375C30.3438 0.885417 30.8021 0.927083 31.2188 0.96875C31.6979 1.01042 32.1562 1.04167 32.5938 1.0625ZM24.75 12.7188C24.3542 12.8646 24.0312 13.1146 23.7812 13.4688C23.5521 13.8229 23.3646 14.25 23.2188 14.75C23.0729 15.2292 22.9688 15.75 22.9062 16.3125C22.8646 16.8542 22.8333 17.3854 22.8125 17.9062C22.8125 18.4062 22.8125 18.8646 22.8125 19.2812C22.8125 19.6979 22.8125 20.0104 22.8125 20.2188C22.8125 20.3438 22.8333 20.5729 22.875 20.9062C22.9375 21.2188 23.0625 21.5521 23.25 21.9062C23.4375 22.2396 23.6979 22.5417 24.0312 22.8125C24.3854 23.0833 24.8542 23.2188 25.4375 23.2188C25.9167 23.1771 26.4271 23.0104 26.9688 22.7188C27.4479 22.4688 27.9896 22.0729 28.5938 21.5312C29.2188 20.9688 29.8854 20.1667 30.5938 19.125C30.5521 18.4583 30.5208 17.9062 30.5 17.4688C30.5 17.0312 30.4896 16.6771 30.4688 16.4062C30.4479 16.0938 30.4375 15.8438 30.4375 15.6562V15.1875C30.4375 15.0625 30.4375 14.9271 30.4375 14.7812C30.4375 14.6354 30.4479 14.5 30.4688 14.375C29.8854 13.9583 29.3646 13.6042 28.9062 13.3125C28.4688 13 28.0312 12.7708 27.5938 12.625C27.1771 12.4583 26.7396 12.3854 26.2812 12.4062C25.8438 12.4062 25.3333 12.5104 24.75 12.7188ZM36.1875 11.0312L41.9375 11.0938C41.6042 12.3646 41.3542 13.4479 41.1875 14.3438C41.0417 15.2396 40.9479 15.9896 40.9062 16.5938C40.8229 17.2812 40.8021 17.8646 40.8438 18.3438C40.9062 18.7812 41.0104 19.25 41.1562 19.75C41.2812 20.1667 41.4688 20.6458 41.7188 21.1875C41.9688 21.7292 42.3021 22.2708 42.7188 22.8125C42.4688 22.7292 42.1979 22.6667 41.9062 22.625C41.6146 22.5833 41.3438 22.5521 41.0938 22.5312C40.8021 22.5104 40.5104 22.5104 40.2188 22.5312C39.9271 22.5521 39.6042 22.5833 39.25 22.625C38.9583 22.6667 38.6042 22.7188 38.1875 22.7812C37.7708 22.8438 37.3333 22.9271 36.875 23.0312C37.1875 22.0938 37.4271 21.2812 37.5938 20.5938C37.7812 19.9062 37.9167 19.3333 38 18.875C38.0833 18.3333 38.1354 17.8958 38.1562 17.5625C38.1562 17.1458 38.1562 16.6771 38.1562 16.1562C38.1562 15.6146 38.1562 15.0938 38.1562 14.5938C38.1562 14.0938 38.1458 13.6562 38.125 13.2812C38.1042 12.8854 38.0625 12.6354 38 12.5312L37.6875 12.2188C37.5625 12.1146 37.375 11.9688 37.125 11.7812C36.8958 11.5729 36.5833 11.3229 36.1875 11.0312ZM38.4062 6.21875C38.8438 5.98958 39.2812 5.92708 39.7188 6.03125C40.1771 6.13542 40.5312 6.33333 40.7812 6.625C41.0312 6.91667 41.1146 7.26042 41.0312 7.65625C40.9688 8.05208 40.6354 8.4375 40.0312 8.8125C39.4271 9.16667 38.8958 9.29167 38.4375 9.1875C37.9792 9.08333 37.6562 8.86458 37.4688 8.53125C37.2812 8.19792 37.25 7.8125 37.375 7.375C37.5 6.91667 37.8438 6.53125 38.4062 6.21875ZM42.9062 10.4375C43.5729 10.3333 44.1146 10.25 44.5312 10.1875C44.9688 10.1042 45.3229 10.0417 45.5938 10C45.9062 9.9375 46.1458 9.88542 46.3125 9.84375C46.4792 9.80208 46.7188 9.73958 47.0312 9.65625C47.3021 9.57292 47.6562 9.47917 48.0938 9.375C48.5312 9.25 49.0833 9.08333 49.75 8.875C49.5833 9.08333 49.4479 9.27083 49.3438 9.4375C49.2604 9.58333 49.1771 9.70833 49.0938 9.8125C49.0104 9.9375 48.9375 10.0521 48.875 10.1562C48.8125 10.2604 48.75 10.4167 48.6875 10.625C48.6458 10.7917 48.5938 11.0312 48.5312 11.3438C48.4688 11.6354 48.4167 12.0208 48.375 12.5C49.5 11.7917 50.5312 11.2604 51.4688 10.9062C52.4271 10.5521 53.2604 10.3021 53.9688 10.1562C54.8021 9.98958 55.5521 9.92708 56.2188 9.96875C57.0521 10.0312 57.8229 10.2188 58.5312 10.5312C59.2604 10.8229 59.9167 11.1771 60.5 11.5938C61.0833 12.0104 61.5938 12.4688 62.0312 12.9688C62.4688 13.4688 62.8125 13.9688 63.0625 14.4688C63.2292 14.8021 63.3333 15.2812 63.375 15.9062C63.4375 16.5312 63.375 17.1979 63.1875 17.9062C63 18.6146 62.6667 19.3125 62.1875 20C61.7292 20.6667 61.0729 21.1979 60.2188 21.5938C58.7396 22.2604 57.2708 22.6354 55.8125 22.7188C55.1875 22.7604 54.5417 22.7396 53.875 22.6562C53.2292 22.5729 52.5729 22.3958 51.9062 22.125C51.2604 21.8542 50.6354 21.4688 50.0312 20.9688C49.4271 20.4479 48.875 19.7812 48.375 18.9688C48.2083 20.0312 48.0833 20.9583 48 21.75C47.9375 22.5208 47.8958 23.1667 47.875 23.6875C47.8542 24.2917 47.8542 24.8021 47.875 25.2188C47.9167 25.6354 48 26.0833 48.125 26.5625C48.2292 26.9792 48.375 27.4583 48.5625 28C48.7708 28.5625 49.0312 29.1458 49.3438 29.75C49.2188 29.7083 49.0417 29.6771 48.8125 29.6562C48.6042 29.6562 48.3854 29.6771 48.1562 29.7188C47.9062 29.7604 47.625 29.8021 47.3125 29.8438C47.0208 29.9062 46.6979 29.9792 46.3438 30.0625C46.0521 30.125 45.7083 30.1979 45.3125 30.2812C44.9375 30.3854 44.5521 30.5 44.1562 30.625C44.3854 30.3542 44.5625 30.0417 44.6875 29.6875C44.8333 29.3542 44.9479 29.0417 45.0312 28.75C45.1146 28.3958 45.1875 28.0417 45.25 27.6875C45.2708 27.375 45.3021 26.7812 45.3438 25.9062C45.4062 25.0521 45.4583 24.0625 45.5 22.9375C45.5417 21.7917 45.5729 20.5938 45.5938 19.3438C45.6354 18.0938 45.6562 16.9375 45.6562 15.875C45.6771 14.7917 45.6771 13.875 45.6562 13.125C45.6354 12.375 45.5938 11.9375 45.5312 11.8125C45.4479 11.6667 45.2917 11.5104 45.0625 11.3438C44.875 11.1979 44.6042 11.0521 44.25 10.9062C43.9167 10.7604 43.4688 10.6042 42.9062 10.4375ZM50.3438 16.125C50.1979 16.6042 50.1667 17.0729 50.25 17.5312C50.3333 17.9896 50.5417 18.4167 50.875 18.8125C51.2292 19.2083 51.7188 19.5625 52.3438 19.875C52.9896 20.1667 53.7917 20.3854 54.75 20.5312C55.7083 20.6771 56.4375 20.6562 56.9375 20.4688C57.4375 20.2812 57.8021 19.9896 58.0312 19.5938C58.2812 19.1771 58.4479 18.6979 58.5312 18.1562C58.6146 17.5938 58.7188 17.0104 58.8438 16.4062C58.9688 15.8229 58.9479 15.2292 58.7812 14.625C58.6146 14 58.375 13.4375 58.0625 12.9375C57.7708 12.4375 57.4375 12.0312 57.0625 11.7188C56.7083 11.3854 56.3958 11.2188 56.125 11.2188C55.4792 11.2188 54.8438 11.3854 54.2188 11.7188C53.5938 12.0521 53.0208 12.4688 52.5 12.9688C51.9792 13.4688 51.5208 14.0104 51.125 14.5938C50.75 15.1562 50.4896 15.6667 50.3438 16.125ZM64.6562 11.0312L70.4062 11.0938C70.0729 12.3646 69.8229 13.4479 69.6562 14.3438C69.5104 15.2396 69.4167 15.9896 69.375 16.5938C69.2917 17.2812 69.2708 17.8646 69.3125 18.3438C69.375 18.7812 69.4792 19.25 69.625 19.75C69.75 20.1667 69.9375 20.6458 70.1875 21.1875C70.4375 21.7292 70.7708 22.2708 71.1875 22.8125C70.9375 22.7292 70.6667 22.6667 70.375 22.625C70.0833 22.5833 69.8125 22.5521 69.5625 22.5312C69.2708 22.5104 68.9792 22.5104 68.6875 22.5312C68.3958 22.5521 68.0729 22.5833 67.7188 22.625C67.4271 22.6667 67.0729 22.7188 66.6562 22.7812C66.2396 22.8438 65.8021 22.9271 65.3438 23.0312C65.6562 22.0938 65.8958 21.2812 66.0625 20.5938C66.25 19.9062 66.3854 19.3333 66.4688 18.875C66.5521 18.3333 66.6042 17.8958 66.625 17.5625C66.625 17.1458 66.625 16.6771 66.625 16.1562C66.625 15.6146 66.625 15.0938 66.625 14.5938C66.625 14.0938 66.6146 13.6562 66.5938 13.2812C66.5729 12.8854 66.5312 12.6354 66.4688 12.5312L66.1562 12.2188C66.0312 12.1146 65.8438 11.9688 65.5938 11.7812C65.3646 11.5729 65.0521 11.3229 64.6562 11.0312ZM66.875 6.21875C67.3125 5.98958 67.75 5.92708 68.1875 6.03125C68.6458 6.13542 69 6.33333 69.25 6.625C69.5 6.91667 69.5833 7.26042 69.5 7.65625C69.4375 8.05208 69.1042 8.4375 68.5 8.8125C67.8958 9.16667 67.3646 9.29167 66.9062 9.1875C66.4479 9.08333 66.125 8.86458 65.9375 8.53125C65.75 8.19792 65.7188 7.8125 65.8438 7.375C65.9688 6.91667 66.3125 6.53125 66.875 6.21875ZM86.0938 7.15625C85.9062 7.61458 85.7396 8.03125 85.5938 8.40625C85.4688 8.78125 85.3542 9.11458 85.25 9.40625C85.1458 9.73958 85.0521 10.0312 84.9688 10.2812C84.8854 10.5729 84.7917 10.9062 84.6875 11.2812C84.5833 11.6146 84.4479 12.0312 84.2812 12.5312C84.1354 13.0104 83.9583 13.5833 83.75 14.25C83.5833 13.25 83.2812 12.4583 82.8438 11.875C82.4062 11.2708 81.9583 10.8021 81.5 10.4688C80.9583 10.0938 80.375 9.82292 79.75 9.65625C78.625 9.46875 77.8125 9.48958 77.3125 9.71875C76.8125 9.94792 76.4792 10.2396 76.3125 10.5938C76.2292 10.7396 76.1354 10.9271 76.0312 11.1562C75.9479 11.3646 75.875 11.5833 75.8125 11.8125C75.7708 12.0417 75.7604 12.2708 75.7812 12.5C75.8021 12.7292 75.8958 12.9167 76.0625 13.0625C76.1667 13.1667 76.4375 13.3125 76.875 13.5C77.3125 13.6667 77.8333 13.8646 78.4375 14.0938C79.0625 14.3021 79.7188 14.5312 80.4062 14.7812C81.1146 15.0312 81.7812 15.2812 82.4062 15.5312C83.0312 15.7812 83.5729 16.0312 84.0312 16.2812C84.4896 16.5312 84.7917 16.7604 84.9375 16.9688C85.0625 17.1771 85.1979 17.4583 85.3438 17.8125C85.5104 18.1458 85.625 18.5208 85.6875 18.9375C85.7708 19.3333 85.7917 19.75 85.75 20.1875C85.7292 20.6042 85.6146 21.0208 85.4062 21.4375C85.1979 21.8542 84.8646 22.2396 84.4062 22.5938C83.9688 22.9479 83.375 23.2396 82.625 23.4688C81.75 23.7396 80.9062 23.8125 80.0938 23.6875C79.2812 23.5625 78.5312 23.375 77.8438 23.125C77.1771 22.875 76.5938 22.6354 76.0938 22.4062C75.5938 22.1562 75.2396 22.0521 75.0312 22.0938C74.8021 22.1354 74.5417 22.25 74.25 22.4375C73.9583 22.625 73.6771 22.8229 73.4062 23.0312C73.1562 23.2188 72.9375 23.3958 72.75 23.5625C72.5625 23.7083 72.4688 23.7604 72.4688 23.7188C72.4688 23.6771 72.5 23.5521 72.5625 23.3438C72.6458 23.1354 72.7292 22.8854 72.8125 22.5938C72.9167 22.2812 73.0104 21.9479 73.0938 21.5938C73.1979 21.2188 73.2708 20.8646 73.3125 20.5312C73.3542 20.2604 73.4062 19.9271 73.4688 19.5312C73.5104 19.1771 73.5625 18.75 73.625 18.25C73.7083 17.7292 73.8021 17.1042 73.9062 16.375C74.0104 16.9167 74.1562 17.3854 74.3438 17.7812C74.5521 18.1771 74.75 18.5208 74.9375 18.8125C75.1667 19.1458 75.3854 19.4271 75.5938 19.6562C75.9062 19.9479 76.2708 20.2188 76.6875 20.4688C77.125 20.7188 77.5625 20.9375 78 21.125C78.4375 21.2917 78.8542 21.3958 79.25 21.4375C79.6458 21.4792 79.9792 21.4375 80.25 21.3125C80.5208 21.1875 80.75 20.9583 80.9375 20.625C81.1458 20.2917 81.2917 19.9271 81.375 19.5312C81.4583 19.1354 81.4896 18.7604 81.4688 18.4062C81.4479 18.0312 81.3542 17.7292 81.1875 17.5C81.0625 17.3542 80.7708 17.1667 80.3125 16.9375C79.875 16.7083 79.3438 16.4583 78.7188 16.1875C78.1146 15.9167 77.4688 15.6354 76.7812 15.3438C76.1146 15.0521 75.4792 14.7604 74.875 14.4688C74.2917 14.1562 73.8021 13.8646 73.4062 13.5938C73.0312 13.3021 72.8229 13.0417 72.7812 12.8125C72.7396 12.4792 72.7083 12.1146 72.6875 11.7188C72.6667 11.3021 72.6875 10.8958 72.75 10.5C72.8333 10.0833 72.9792 9.6875 73.1875 9.3125C73.4167 8.9375 73.75 8.625 74.1875 8.375C74.4792 8.20833 74.8646 8.08333 75.3438 8C75.8229 7.91667 76.3542 7.875 76.9375 7.875C77.5208 7.85417 78.125 7.875 78.75 7.9375C79.375 7.97917 79.9688 8.04167 80.5312 8.125C81.1146 8.1875 81.6354 8.27083 82.0938 8.375C82.5729 8.47917 82.9375 8.57292 83.1875 8.65625C83.4792 8.76042 83.7917 8.77083 84.125 8.6875C84.4167 8.625 84.7292 8.48958 85.0625 8.28125C85.3958 8.07292 85.7396 7.69792 86.0938 7.15625ZM104.688 13.9062C104.438 13.8646 104.125 13.8333 103.75 13.8125C103.396 13.7917 103.052 13.7812 102.719 13.7812C102.344 13.7812 101.948 13.7917 101.531 13.8125C101.094 13.8333 100.656 13.8542 100.219 13.875C99.8438 13.8958 99.4167 13.9271 98.9375 13.9688C98.4792 13.9896 98.0312 14.0208 97.5938 14.0625C97.7604 13.9792 97.9062 13.8646 98.0312 13.7188C98.1771 13.5729 98.3021 13.4271 98.4062 13.2812C98.5104 13.1146 98.6042 12.9375 98.6875 12.75C98.7917 12.4375 98.7812 12.0625 98.6562 11.625C98.5312 11.1667 98.3021 10.75 97.9688 10.375C97.6562 10 97.25 9.70833 96.75 9.5C96.2708 9.27083 95.7396 9.21875 95.1562 9.34375C94.5312 9.48958 93.9688 9.70833 93.4688 10C92.9896 10.2917 92.5833 10.6979 92.25 11.2188C91.9375 11.7188 91.7083 12.3438 91.5625 13.0938C91.4375 13.8229 91.4062 14.6979 91.4688 15.7188C91.5521 16.9896 91.7604 18 92.0938 18.75C92.4271 19.5 92.8333 20.0625 93.3125 20.4375C93.7917 20.8125 94.3125 21.0417 94.875 21.125C95.4583 21.1875 96.0312 21.1875 96.5938 21.125C96.9896 21.0417 97.3542 20.8646 97.6875 20.5938C97.9583 20.3646 98.2083 20.0312 98.4375 19.5938C98.6667 19.1562 98.7708 18.5521 98.75 17.7812L102.562 17.625C102.125 18.8542 101.594 19.8333 100.969 20.5625C100.344 21.2708 99.7396 21.8229 99.1562 22.2188C98.4688 22.6771 97.7812 22.9896 97.0938 23.1562C96.2396 23.3021 95.4792 23.3646 94.8125 23.3438C94.1458 23.3021 93.5417 23.1979 93 23.0312C92.4583 22.8646 91.9583 22.6562 91.5 22.4062C91.0417 22.1562 90.6042 21.8854 90.1875 21.5938C89.9167 21.4062 89.6146 21.0938 89.2812 20.6562C88.9479 20.2188 88.6354 19.6979 88.3438 19.0938C88.0521 18.4688 87.8125 17.7812 87.625 17.0312C87.4375 16.2812 87.3646 15.5104 87.4062 14.7188C87.4479 13.9062 87.6354 13.0938 87.9688 12.2812C88.3021 11.4688 88.8333 10.6875 89.5625 9.9375C90.6667 8.8125 91.8438 8.08333 93.0938 7.75C94.3646 7.39583 95.5625 7.30208 96.6875 7.46875C97.8125 7.61458 98.8125 7.9375 99.6875 8.4375C100.562 8.9375 101.177 9.47917 101.531 10.0625C101.885 10.6458 102.146 11.0938 102.312 11.4062C102.5 11.6979 102.635 11.9271 102.719 12.0938C102.823 12.2396 102.906 12.3542 102.969 12.4375C103.052 12.5 103.167 12.5938 103.312 12.7188C103.417 12.8229 103.542 12.9375 103.688 13.0625C103.812 13.1667 103.958 13.2917 104.125 13.4375C104.292 13.5833 104.479 13.7396 104.688 13.9062ZM104.219 11.0312L109.969 11.0938C109.635 12.3646 109.385 13.4479 109.219 14.3438C109.073 15.2396 108.979 15.9896 108.938 16.5938C108.854 17.2812 108.833 17.8646 108.875 18.3438C108.938 18.7812 109.042 19.25 109.188 19.75C109.312 20.1667 109.5 20.6458 109.75 21.1875C110 21.7292 110.333 22.2708 110.75 22.8125C110.5 22.7292 110.229 22.6667 109.938 22.625C109.646 22.5833 109.375 22.5521 109.125 22.5312C108.833 22.5104 108.542 22.5104 108.25 22.5312C107.958 22.5521 107.635 22.5833 107.281 22.625C106.99 22.6667 106.635 22.7188 106.219 22.7812C105.802 22.8438 105.365 22.9271 104.906 23.0312C105.219 22.0938 105.458 21.2812 105.625 20.5938C105.812 19.9062 105.948 19.3333 106.031 18.875C106.115 18.3333 106.167 17.8958 106.188 17.5625C106.188 17.1458 106.188 16.6771 106.188 16.1562C106.188 15.6146 106.188 15.0938 106.188 14.5938C106.188 14.0938 106.177 13.6562 106.156 13.2812C106.135 12.8854 106.094 12.6354 106.031 12.5312L105.719 12.2188C105.594 12.1146 105.406 11.9688 105.156 11.7812C104.927 11.5729 104.615 11.3229 104.219 11.0312ZM106.438 6.21875C106.875 5.98958 107.312 5.92708 107.75 6.03125C108.208 6.13542 108.562 6.33333 108.812 6.625C109.062 6.91667 109.146 7.26042 109.062 7.65625C109 8.05208 108.667 8.4375 108.062 8.8125C107.458 9.16667 106.927 9.29167 106.469 9.1875C106.01 9.08333 105.688 8.86458 105.5 8.53125C105.312 8.19792 105.281 7.8125 105.406 7.375C105.531 6.91667 105.875 6.53125 106.438 6.21875ZM112.844 21.5625C112.99 20.875 113.094 20.2708 113.156 19.75C113.24 19.2083 113.302 18.7604 113.344 18.4062C113.385 17.9896 113.406 17.6354 113.406 17.3438C113.385 16.9896 113.365 16.5729 113.344 16.0938C113.344 15.5938 113.323 15.1042 113.281 14.625C113.26 14.125 113.229 13.6875 113.188 13.3125C113.146 12.9167 113.094 12.6354 113.031 12.4688C112.948 12.3021 112.833 12.125 112.688 11.9375C112.396 11.5833 111.969 11.2396 111.406 10.9062C111.885 10.8021 112.292 10.7188 112.625 10.6562C112.979 10.5729 113.271 10.5 113.5 10.4375C113.75 10.3542 113.969 10.2812 114.156 10.2188C114.323 10.1562 114.521 10.0938 114.75 10.0312C114.938 9.98958 115.167 9.9375 115.438 9.875C115.708 9.8125 116.021 9.73958 116.375 9.65625L116.281 12.5C116.948 11.7083 117.625 11.1146 118.312 10.7188C119 10.3229 119.646 10.0417 120.25 9.875C120.938 9.66667 121.615 9.5625 122.281 9.5625C123.115 9.60417 123.885 9.73958 124.594 9.96875C125.323 10.1979 125.948 10.4688 126.469 10.7812C127.01 11.0729 127.448 11.3854 127.781 11.7188C128.115 12.0521 128.312 12.3438 128.375 12.5938C128.625 13.4062 128.688 14.1562 128.562 14.8438C128.438 15.5104 128.271 16.1667 128.062 16.8125C127.875 17.4375 127.708 18.0625 127.562 18.6875C127.438 19.3125 127.49 19.9896 127.719 20.7188C127.802 20.9062 127.885 21.0938 127.969 21.2812C128.052 21.4479 128.156 21.6146 128.281 21.7812C128.406 21.9479 128.552 22.0833 128.719 22.1875C128.49 22.1667 128.26 22.1562 128.031 22.1562C127.802 22.1354 127.594 22.1146 127.406 22.0938C127.177 22.0729 126.969 22.0521 126.781 22.0312C126.573 22.0104 126.292 22 125.938 22C125.333 22 124.396 22.0312 123.125 22.0938C123.312 21.6562 123.458 21.2917 123.562 21C123.688 20.6875 123.792 20.4375 123.875 20.25C123.958 20.0208 124.021 19.8438 124.062 19.7188C124.312 19.1146 124.458 18.4271 124.5 17.6562C124.562 16.8854 124.51 16.1042 124.344 15.3125C124.281 15.0417 124.177 14.7188 124.031 14.3438C123.885 13.9688 123.688 13.6042 123.438 13.25C123.208 12.8958 122.927 12.5938 122.594 12.3438C122.281 12.0938 121.917 11.9479 121.5 11.9062C121.083 11.8646 120.615 11.9688 120.094 12.2188C119.594 12.4688 119.052 12.9271 118.469 13.5938C118.031 14.1562 117.688 14.8438 117.438 15.6562C117.208 16.3438 117.052 17.2083 116.969 18.25C116.885 19.2708 117.01 20.4688 117.344 21.8438C117.052 21.8021 116.781 21.7812 116.531 21.7812C116.281 21.7604 116.073 21.7396 115.906 21.7188C115.698 21.6979 115.51 21.6771 115.344 21.6562C115.156 21.6562 114.948 21.6458 114.719 21.625C114.51 21.625 114.25 21.625 113.938 21.625C113.625 21.6042 113.26 21.5833 112.844 21.5625ZM145.375 11.75C145.312 11.3333 145.26 10.9896 145.219 10.7188C145.177 10.4271 145.135 10.1979 145.094 10.0312C145.052 9.82292 145.021 9.66667 145 9.5625C144.958 9.45833 144.906 9.34375 144.844 9.21875C144.802 9.11458 144.729 8.98958 144.625 8.84375C144.542 8.69792 144.438 8.53125 144.312 8.34375C144.583 8.42708 144.854 8.47917 145.125 8.5C145.417 8.52083 145.688 8.54167 145.938 8.5625C146.208 8.58333 146.49 8.58333 146.781 8.5625C147.073 8.5625 147.406 8.55208 147.781 8.53125C148.115 8.51042 148.51 8.5 148.969 8.5C149.448 8.47917 149.99 8.44792 150.594 8.40625C150.24 8.48958 149.938 8.63542 149.688 8.84375C149.458 9.03125 149.26 9.23958 149.094 9.46875C148.906 9.71875 148.75 9.98958 148.625 10.2812C148.521 10.5521 148.458 11.0729 148.438 11.8438C148.417 12.5938 148.417 13.4896 148.438 14.5312C148.458 15.5521 148.479 16.6562 148.5 17.8438C148.542 19.0312 148.562 20.1667 148.562 21.25C148.583 22.3333 148.583 23.3229 148.562 24.2188C148.542 25.0938 148.49 25.7396 148.406 26.1562C148.115 27.4688 147.573 28.5312 146.781 29.3438C145.99 30.1771 144.948 30.625 143.656 30.6875C142.094 30.75 140.854 30.6042 139.938 30.25C139.042 29.8958 138.344 29.4583 137.844 28.9375C137.344 28.4375 136.969 27.9271 136.719 27.4062C136.469 26.8854 136.208 26.4896 135.938 26.2188C135.688 25.9896 135.438 25.7708 135.188 25.5625C134.958 25.3958 134.719 25.2292 134.469 25.0625C134.24 24.8958 134.01 24.7917 133.781 24.75C134.385 24.7708 134.927 24.7812 135.406 24.7812C135.885 24.7812 136.292 24.7812 136.625 24.7812C137 24.7812 137.333 24.7708 137.625 24.75H138.625H141.469C141.052 24.875 140.74 25.0104 140.531 25.1562C140.323 25.3229 140.177 25.4896 140.094 25.6562C140.01 25.8438 139.969 26.0312 139.969 26.2188C140.052 26.7188 140.323 27.0833 140.781 27.3125C141.24 27.5417 141.865 27.6771 142.656 27.7188C143.427 27.7604 143.958 27.7396 144.25 27.6562C144.542 27.5938 144.771 27.4688 144.938 27.2812C145.271 26.7812 145.552 26.1354 145.781 25.3438C145.948 24.6771 146.062 23.8125 146.125 22.75C146.208 21.6667 146.115 20.3438 145.844 18.7812C145.177 19.6979 144.406 20.3854 143.531 20.8438C142.656 21.3021 141.823 21.6354 141.031 21.8438C140.094 22.0729 139.146 22.1875 138.188 22.1875C135.667 22.0833 133.781 21.5 132.531 20.4375C131.281 19.375 130.708 17.9479 130.812 16.1562C130.875 15.2604 131.146 14.3646 131.625 13.4688C132.125 12.5729 132.771 11.7708 133.562 11.0625C134.375 10.3542 135.302 9.79167 136.344 9.375C137.385 8.95833 138.469 8.78125 139.594 8.84375C140.448 8.92708 141.25 9.08333 142 9.3125C142.646 9.52083 143.281 9.8125 143.906 10.1875C144.552 10.5625 145.042 11.0833 145.375 11.75ZM135.438 14.875C135.312 15.6875 135.365 16.4479 135.594 17.1562C135.844 17.8646 136.188 18.4792 136.625 19C137.062 19.5 137.552 19.8958 138.094 20.1875C138.635 20.4583 139.146 20.5833 139.625 20.5625C140.625 20.5417 141.49 20.0938 142.219 19.2188C142.948 18.3229 143.385 16.9896 143.531 15.2188C143.594 14.3438 143.479 13.5938 143.188 12.9688C142.917 12.3229 142.573 11.8021 142.156 11.4062C141.74 11.0104 141.302 10.7292 140.844 10.5625C140.385 10.3958 140.021 10.3229 139.75 10.3438C139.375 10.3854 138.958 10.5 138.5 10.6875C138.062 10.8542 137.635 11.1146 137.219 11.4688C136.802 11.8021 136.427 12.25 136.094 12.8125C135.781 13.375 135.562 14.0625 135.438 14.875Z" fill="black"/>
</svg>
