<svg width="201" height="25" viewBox="0 0 201 25" fill="none" xmlns="http://www.w3.org/2000/svg">
<path d="M24.7739 3.808L28.1339 21.824L31.0459 22.112C31.0459 22.688 30.8645 23.3173 30.5019 24H23.1419L23.0459 22.88C23.6859 22.6027 24.4752 22.3787 25.4139 22.208L21.9899 4.256L17.7659 22.464H14.5979L8.77388 4.192L6.18188 21.824L8.90188 22.08C8.90188 22.6773 8.72054 23.3173 8.35788 24H0.997875L0.901875 22.88C1.84054 22.5387 2.77921 22.2827 3.71788 22.112L6.53388 3.552C5.23254 3.36 4.19788 3.136 3.42988 2.88L3.55788 1.6H11.0139L16.1019 19.136H16.2299L20.1979 1.6H27.3339C27.6965 2.28267 27.8779 2.944 27.8779 3.584C26.4912 3.73333 25.4565 3.808 24.7739 3.808ZM40.0596 22.464C41.8516 22.464 43.057 21.9093 43.6756 20.8C44.3156 19.6693 44.6356 18.0693 44.6356 16C44.6356 12.7147 43.9103 10.656 42.4596 9.824C41.8623 9.48267 41.0196 9.312 39.9316 9.312C38.865 9.312 37.8516 9.536 36.8916 9.984C36.0383 11.6267 35.6116 13.536 35.6116 15.712C35.6116 17.8027 35.889 19.4133 36.4436 20.544C37.0836 21.824 38.289 22.464 40.0596 22.464ZM32.6676 16C32.6676 13.2907 33.2863 11.1787 34.5236 9.664C35.761 8.128 37.6703 7.36 40.2516 7.36C42.833 7.36 44.6996 8.064 45.8516 9.472C47.0036 10.8587 47.5796 12.9173 47.5796 15.648C47.5796 18.3787 46.961 20.5227 45.7236 22.08C44.5076 23.6373 42.6516 24.416 40.1556 24.416C37.6596 24.416 35.7823 23.6907 34.5236 22.24C33.2863 20.7893 32.6676 18.7093 32.6676 16ZM59.7104 10.048C59.6037 9.94133 59.369 9.888 59.0064 9.888C58.6437 9.888 58.0997 10.016 57.3744 10.272C56.6704 10.528 56.0304 10.8267 55.4544 11.168C55.3264 15.904 55.241 19.456 55.1984 21.824L57.8864 22.08C57.8864 22.6773 57.705 23.3173 57.3424 24H49.9824L49.8864 22.88C50.8677 22.5387 51.8277 22.2827 52.7664 22.112C52.6384 16.6933 52.5317 12.6827 52.4464 10.08C51.273 10.016 50.3344 9.888 49.6304 9.696L49.7584 8.032C50.889 7.712 52.5637 7.552 54.7824 7.552C55.1237 8.08533 55.337 8.768 55.4224 9.6C57.8757 8.10667 59.337 7.36 59.8064 7.36C60.2757 7.36 60.8197 7.456 61.4384 7.648C62.057 7.81867 62.5157 8.01067 62.8144 8.224C62.8144 10.3573 62.6117 12.096 62.2064 13.44C61.9077 13.5253 61.5557 13.568 61.1504 13.568C60.7664 13.568 60.4997 13.5573 60.3504 13.536L59.7104 10.048ZM73.6694 9.76C72.2827 9.76 70.7574 10.208 69.0934 11.104C69.0507 13.0667 69.008 14.8907 68.9654 16.576C68.944 18.24 68.9227 19.4027 68.9014 20.064C69.4347 20.5973 70.1494 21.088 71.0454 21.536C71.9414 21.984 72.72 22.208 73.3814 22.208C75.8987 22.208 77.1574 20.1387 77.1574 16C77.1574 14.4213 76.976 13.184 76.6134 12.288C76.2507 11.3707 75.8347 10.72 75.3654 10.336C74.896 9.952 74.3307 9.76 73.6694 9.76ZM68.1974 0.223999C68.8587 0.223999 69.328 0.245332 69.6054 0.287998C69.6054 0.927999 69.4667 1.78133 69.1894 2.848C69.1894 3.33867 69.1787 4.032 69.1574 4.928C69.1147 6.67733 69.0934 8.16 69.0934 9.376C71.7387 8.032 73.456 7.36 74.2454 7.36C76.2294 7.36 77.7014 8.13867 78.6614 9.696C79.6214 11.232 80.1014 13.2373 80.1014 15.712C80.1014 18.1653 79.5574 20.224 78.4694 21.888C77.4027 23.552 75.8454 24.384 73.7974 24.384C72.9654 24.384 72.048 24.1493 71.0454 23.68C70.064 23.2107 69.2214 22.656 68.5174 22.016C68.432 22.8053 68.2614 23.5307 68.0054 24.192C67.92 24.2133 67.76 24.224 67.5254 24.224C67.2907 24.224 66.9494 24.192 66.5014 24.128L66.1494 2.784C65.0827 2.72 64.144 2.58133 63.3334 2.368L63.4614 0.703999C64.5494 0.383999 66.128 0.223999 68.1974 0.223999ZM88.1776 4.704C87.623 4.832 87.079 4.896 86.5456 4.896C86.0336 4.896 85.5216 4.864 85.0096 4.8C84.8816 4.20267 84.8176 3.60533 84.8176 3.008C84.8176 2.38933 84.839 1.93066 84.8816 1.632C85.351 1.52533 85.8416 1.472 86.3536 1.472C86.887 1.472 87.4523 1.49333 88.0496 1.536C88.1776 2.09067 88.2416 2.63467 88.2416 3.168C88.2416 3.68 88.2203 4.192 88.1776 4.704ZM82.3536 8.064C84.167 7.744 85.575 7.584 86.5776 7.584C87.5803 7.584 88.2203 7.60533 88.4976 7.648C88.4976 8.16 88.4336 8.72533 88.3056 9.344C88.1776 9.96267 88.103 10.2613 88.0816 10.24L87.7936 21.824L90.4816 22.08C90.4816 22.6773 90.3003 23.3173 89.9376 24H82.5776L82.4816 22.88C83.463 22.5387 84.423 22.2827 85.3616 22.112C85.2336 16.7787 85.127 12.7787 85.0416 10.112C83.8043 10.112 82.8656 9.984 82.2256 9.728L82.3536 8.064ZM104.894 0.223999C105.555 0.223999 106.025 0.245332 106.302 0.287998C106.302 1.03467 106.163 1.888 105.886 2.848C105.694 15.4347 105.598 21.76 105.598 21.824L108.286 22.08C108.286 22.6773 108.105 23.3173 107.742 24H100.382L100.286 22.88C101.267 22.5387 102.227 22.2827 103.166 22.112L102.846 2.752C101.673 2.688 100.734 2.56 100.03 2.368L100.158 0.703999C101.246 0.383999 102.825 0.223999 104.894 0.223999ZM122.875 13.536L122.715 21.792C123.633 21.856 124.55 22.0053 125.467 22.24L125.403 23.36C125.062 23.5307 124.443 23.7227 123.547 23.936C122.673 24.128 121.809 24.224 120.955 24.224C120.571 23.456 120.358 22.72 120.315 22.016C117.883 23.616 116.177 24.416 115.195 24.416C113.681 24.416 112.465 24.0107 111.547 23.2C110.63 22.3893 110.171 21.2587 110.171 19.808C110.171 16.4587 112.219 14.7307 116.315 14.624C118.705 14.56 119.91 14.528 119.931 14.528L119.899 13.44C119.857 11.968 119.579 10.912 119.067 10.272C118.555 9.61067 117.638 9.28 116.315 9.28C115.761 9.28 115.163 9.408 114.523 9.664L113.755 12.864C113.649 12.8853 113.467 12.896 113.211 12.896L111.899 12.8C111.558 11.8827 111.377 10.6133 111.355 8.992C111.761 8.77867 112.689 8.45867 114.139 8.032C115.59 7.584 116.518 7.36 116.923 7.36C119.099 7.36 120.635 7.84 121.531 8.8C122.427 9.76 122.875 11.3387 122.875 13.536ZM115.899 22.24C116.518 22.24 117.947 21.5467 120.187 20.16L120.027 16.16C118.577 16.288 117.361 16.4053 116.379 16.512C115.398 16.6187 114.609 16.9067 114.011 17.376C113.414 17.824 113.115 18.5387 113.115 19.52C113.115 21.3333 114.043 22.24 115.899 22.24ZM134.653 22.464C136.445 22.464 137.651 21.9093 138.269 20.8C138.909 19.6693 139.229 18.0693 139.229 16C139.229 12.7147 138.504 10.656 137.053 9.824C136.456 9.48267 135.613 9.312 134.525 9.312C133.459 9.312 132.445 9.536 131.485 9.984C130.632 11.6267 130.205 13.536 130.205 15.712C130.205 17.8027 130.483 19.4133 131.037 20.544C131.677 21.824 132.883 22.464 134.653 22.464ZM127.261 16C127.261 13.2907 127.88 11.1787 129.117 9.664C130.355 8.128 132.264 7.36 134.845 7.36C137.427 7.36 139.293 8.064 140.445 9.472C141.597 10.8587 142.173 12.9173 142.173 15.648C142.173 18.3787 141.555 20.5227 140.317 22.08C139.101 23.6373 137.245 24.416 134.749 24.416C132.253 24.416 130.376 23.6907 129.117 22.24C127.88 20.7893 127.261 18.7093 127.261 16ZM154.304 10.048C154.197 9.94133 153.963 9.888 153.6 9.888C153.237 9.888 152.693 10.016 151.968 10.272C151.264 10.528 150.624 10.8267 150.048 11.168C149.92 15.904 149.835 19.456 149.792 21.824L152.48 22.08C152.48 22.6773 152.299 23.3173 151.936 24H144.576L144.48 22.88C145.461 22.5387 146.421 22.2827 147.36 22.112C147.232 16.6933 147.125 12.6827 147.04 10.08C145.867 10.016 144.928 9.888 144.224 9.696L144.352 8.032C145.483 7.712 147.157 7.552 149.376 7.552C149.717 8.08533 149.931 8.768 150.016 9.6C152.469 8.10667 153.931 7.36 154.4 7.36C154.869 7.36 155.413 7.456 156.032 7.648C156.651 7.81867 157.109 8.01067 157.408 8.224C157.408 10.3573 157.205 12.096 156.8 13.44C156.501 13.5253 156.149 13.568 155.744 13.568C155.36 13.568 155.093 13.5573 154.944 13.536L154.304 10.048ZM166.983 22.208C167.922 22.208 169.394 21.76 171.399 20.864C171.804 21.4187 172.018 21.9093 172.039 22.336C170.951 22.976 169.884 23.4773 168.839 23.84C167.794 24.2027 167.047 24.384 166.599 24.384C164.124 24.384 162.236 23.648 160.935 22.176C159.634 20.6827 158.983 18.6027 158.983 15.936C158.983 13.2693 159.612 11.1787 160.871 9.664C162.151 8.128 164.06 7.36 166.599 7.36C168.562 7.36 170.055 8.064 171.079 9.472C172.124 10.88 172.647 12.768 172.647 15.136C172.476 15.4347 172.338 15.6373 172.231 15.744L161.927 15.584C161.948 17.7387 162.322 19.3813 163.047 20.512C163.794 21.6427 165.106 22.208 166.983 22.208ZM169.735 13.76C169.735 12.352 169.479 11.264 168.967 10.496C168.455 9.70667 167.602 9.312 166.407 9.312C165.212 9.312 164.146 9.536 163.207 9.984C162.567 11.264 162.162 12.576 161.991 13.92C163.676 13.8987 166.258 13.8453 169.735 13.76ZM183.358 22.208C184.297 22.208 185.769 21.76 187.774 20.864C188.179 21.4187 188.393 21.9093 188.414 22.336C187.326 22.976 186.259 23.4773 185.214 23.84C184.169 24.2027 183.422 24.384 182.974 24.384C180.499 24.384 178.611 23.648 177.31 22.176C176.009 20.6827 175.358 18.6027 175.358 15.936C175.358 13.2693 175.987 11.1787 177.246 9.664C178.526 8.128 180.435 7.36 182.974 7.36C184.937 7.36 186.43 8.064 187.454 9.472C188.499 10.88 189.022 12.768 189.022 15.136C188.851 15.4347 188.713 15.6373 188.606 15.744L178.302 15.584C178.323 17.7387 178.697 19.3813 179.422 20.512C180.169 21.6427 181.481 22.208 183.358 22.208ZM186.11 13.76C186.11 12.352 185.854 11.264 185.342 10.496C184.83 9.70667 183.977 9.312 182.782 9.312C181.587 9.312 180.521 9.536 179.582 9.984C178.942 11.264 178.537 12.576 178.366 13.92C180.051 13.8987 182.633 13.8453 186.11 13.76ZM193.973 22.016L193.717 9.952H191.253L191.157 8.832C191.37 8.68267 191.989 8.40533 193.013 8L195.637 3.904C196.064 3.94667 196.394 4.05333 196.629 4.224L196.597 7.744C198.197 7.744 199.509 7.85067 200.533 8.064C200.533 8.64 200.352 9.26933 199.989 9.952H196.533C196.49 12.512 196.448 16.3947 196.405 21.6C197.6 21.664 198.794 21.8773 199.989 22.24L199.957 23.36C199.658 23.552 198.89 23.776 197.653 24.032C196.437 24.288 195.434 24.416 194.645 24.416C194.538 24.2453 194.4 23.8827 194.229 23.328C194.058 22.752 193.973 22.3147 193.973 22.016Z" fill="black"/>
</svg>
